{
    "asset" : {
        "generator" : "Khronos glTF Blender I/O v1.3.48",
        "version" : "2.0"
    },
    "scene" : 0,
    "scenes" : [
        {
            "name" : "Low_Poly",
            "nodes" : [
                0,
                1,
                2,
                3,
                6,
                7,
                8,
                9,
                10,
                11
            ]
        }
    ],
    "nodes" : [
        {
            "mesh" : 0,
            "name" : "aa_low.002"
        },
        {
            "mesh" : 1,
            "name" : "Sphere",
            "rotation" : [
                -0.010813221335411072,
                -0.07781114429235458,
                -0.1736609935760498,
                0.981667160987854
            ],
            "translation" : [
                2.2892136573791504,
                10.292680740356445,
                14.073945999145508
            ]
        },
        {
            "mesh" : 2,
            "name" : "aa_low.001"
        },
        {
            "name" : "Sun",
            "rotation" : [
                0.06562699377536774,
                -0.03684866800904274,
                -0.2470022290945053,
                0.9660875797271729
            ],
            "translation" : [
                23.712108612060547,
                29.971622467041016,
                8.479602813720703
            ]
        },
        {
            "mesh" : 3,
            "name" : "Text",
            "rotation" : [
                -0.011760208755731583,
                2.3539878384326585e-05,
                -0.0019998608622699976,
                0.999928891658783
            ],
            "scale" : [
                0.35032373666763306,
                0.35032370686531067,
                0.3503236174583435
            ],
            "translation" : [
                -5.047552108764648,
                -11.299903869628906,
                2.4286513328552246
            ]
        },
        {
            "children" : [
                4
            ],
            "name" : "Camera",
            "rotation" : [
                0.6763073801994324,
                -0.006741583812981844,
                0.006903227884322405,
                0.7365562915802002
            ],
            "translation" : [
                0,
                20.477170944213867,
                98.44798278808594
            ]
        },
        {
            "children" : [
                5
            ],
            "name" : "Empty"
        },
        {
            "name" : "Point.001",
            "translation" : [
                -7.2598090171813965,
                8.746872901916504,
                15.661937713623047
            ]
        },
        {
            "name" : "Hemi.001",
            "rotation" : [
                0.10887029767036438,
                -0.009962962940335274,
                -0.8630772233009338,
                0.49309828877449036
            ],
            "translation" : [
                6.1144280433654785,
                11.16469669342041,
                15.014565467834473
            ]
        },
        {
            "name" : "Hemi",
            "rotation" : [
                -0.023969808593392372,
                -0.020566720515489578,
                -0.48877984285354614,
                0.8718352913856506
            ],
            "translation" : [
                18.08099365234375,
                32.81512451171875,
                -2.267578125
            ]
        },
        {
            "name" : "Point",
            "translation" : [
                7.536647796630859,
                37.180912017822266,
                20.50037956237793
            ]
        },
        {
            "name" : "Empty.001",
            "translation" : [
                0.014256348833441734,
                12.923958778381348,
                -0.9677659273147583
            ]
        }
    ],
    "materials" : [
        {
            "doubleSided" : true,
            "name" : "Material.003",
            "pbrMetallicRoughness" : {}
        },
        {
            "doubleSided" : true,
            "name" : "Material.004",
            "pbrMetallicRoughness" : {}
        },
        {
            "doubleSided" : true,
            "name" : "Material.001",
            "pbrMetallicRoughness" : {}
        },
        {
            "doubleSided" : true,
            "name" : "Material",
            "pbrMetallicRoughness" : {}
        },
        {
            "doubleSided" : true,
            "name" : "Material.005",
            "pbrMetallicRoughness" : {}
        }
    ],
    "meshes" : [
        {
            "name" : "Cube.001",
            "primitives" : [
                {
                    "attributes" : {
                        "POSITION" : 0,
                        "NORMAL" : 1,
                        "TEXCOORD_0" : 2,
                        "COLOR_0" : 3
                    },
                    "indices" : 4,
                    "material" : 0
                },
                {
                    "attributes" : {
                        "POSITION" : 5,
                        "NORMAL" : 6,
                        "TEXCOORD_0" : 7,
                        "COLOR_0" : 8
                    },
                    "indices" : 9,
                    "material" : 1
                }
            ]
        },
        {
            "name" : "Sphere.002",
            "primitives" : [
                {
                    "attributes" : {
                        "POSITION" : 10,
                        "NORMAL" : 11,
                        "TEXCOORD_0" : 12
                    },
                    "indices" : 13,
                    "material" : 2
                },
                {
                    "attributes" : {
                        "POSITION" : 14,
                        "NORMAL" : 15,
                        "TEXCOORD_0" : 16
                    },
                    "indices" : 17,
                    "material" : 3
                }
            ]
        },
        {
            "name" : "Cube.007",
            "primitives" : [
                {
                    "attributes" : {
                        "POSITION" : 18,
                        "NORMAL" : 19,
                        "TEXCOORD_0" : 20,
                        "COLOR_0" : 21
                    },
                    "indices" : 22,
                    "material" : 4
                }
            ]
        },
        {
            "name" : "Text",
            "primitives" : [
                {
                    "attributes" : {
                        "POSITION" : 23,
                        "NORMAL" : 24,
                        "TEXCOORD_0" : 25
                    },
                    "indices" : 26
                }
            ]
        }
    ],
    "accessors" : [
        {
            "bufferView" : 0,
            "componentType" : 5126,
            "count" : 261,
            "max" : [
                2.3613905906677246,
                9.316166877746582,
                15.151681900024414
            ],
            "min" : [
                -2.3613905906677246,
                4.344862461090088,
                12.79800033569336
            ],
            "type" : "VEC3"
        },
        {
            "bufferView" : 1,
            "componentType" : 5126,
            "count" : 261,
            "type" : "VEC3"
        },
        {
            "bufferView" : 2,
            "componentType" : 5126,
            "count" : 261,
            "type" : "VEC2"
        },
        {
            "bufferView" : 3,
            "componentType" : 5126,
            "count" : 261,
            "type" : "VEC4"
        },
        {
            "bufferView" : 4,
            "componentType" : 5123,
            "count" : 876,
            "type" : "SCALAR"
        },
        {
            "bufferView" : 5,
            "componentType" : 5126,
            "count" : 60,
            "max" : [
                2.3613905906677246,
                6.772347927093506,
                15.093182563781738
            ],
            "min" : [
                -2.3613905906677246,
                2.4448626041412354,
                12.79800033569336
            ],
            "type" : "VEC3"
        },
        {
            "bufferView" : 6,
            "componentType" : 5126,
            "count" : 60,
            "type" : "VEC3"
        },
        {
            "bufferView" : 7,
            "componentType" : 5126,
            "count" : 60,
            "type" : "VEC2"
        },
        {
            "bufferView" : 8,
            "componentType" : 5126,
            "count" : 60,
            "type" : "VEC4"
        },
        {
            "bufferView" : 9,
            "componentType" : 5123,
            "count" : 90,
            "type" : "SCALAR"
        },
        {
            "bufferView" : 10,
            "componentType" : 5126,
            "count" : 130,
            "max" : [
                0.5032925009727478,
                0.14466522634029388,
                0.954615592956543
            ],
            "min" : [
                -4.679326057434082,
                -1.980398178100586,
                -0.14466546475887299
            ],
            "type" : "VEC3"
        },
        {
            "bufferView" : 11,
            "componentType" : 5126,
            "count" : 130,
            "type" : "VEC3"
        },
        {
            "bufferView" : 12,
            "componentType" : 5126,
            "count" : 130,
            "type" : "VEC2"
        },
        {
            "bufferView" : 13,
            "componentType" : 5123,
            "count" : 576,
            "type" : "SCALAR"
        },
        {
            "bufferView" : 14,
            "componentType" : 5126,
            "count" : 706,
            "max" : [
                0.4788796901702881,
                0.4887850880622864,
                1.180577278137207
            ],
            "min" : [
                -4.732870101928711,
                -2.061427116394043,
                -0.48878535628318787
            ],
            "type" : "VEC3"
        },
        {
            "bufferView" : 15,
            "componentType" : 5126,
            "count" : 706,
            "type" : "VEC3"
        },
        {
            "bufferView" : 16,
            "componentType" : 5126,
            "count" : 706,
            "type" : "VEC2"
        },
        {
            "bufferView" : 17,
            "componentType" : 5123,
            "count" : 3648,
            "type" : "SCALAR"
        },
        {
            "bufferView" : 18,
            "componentType" : 5126,
            "count" : 15075,
            "max" : [
                8.969828605651855,
                19.593196868896484,
                17.09728240966797
            ],
            "min" : [
                -8.969828605651855,
                0.0311327762901783,
                -22.204397201538086
            ],
            "type" : "VEC3"
        },
        {
            "bufferView" : 19,
            "componentType" : 5126,
            "count" : 15075,
            "type" : "VEC3"
        },
        {
            "bufferView" : 20,
            "componentType" : 5126,
            "count" : 15075,
            "type" : "VEC2"
        },
        {
            "bufferView" : 21,
            "componentType" : 5126,
            "count" : 15075,
            "type" : "VEC4"
        },
        {
            "bufferView" : 22,
            "componentType" : 5123,
            "count" : 79380,
            "type" : "SCALAR"
        },
        {
            "bufferView" : 23,
            "componentType" : 5126,
            "count" : 237,
            "max" : [
                1.915000081062317,
                0,
                0.009000000543892384
            ],
            "min" : [
                0.017000000923871994,
                0,
                -0.6820000410079956
            ],
            "type" : "VEC3"
        },
        {
            "bufferView" : 24,
            "componentType" : 5126,
            "count" : 237,
            "type" : "VEC3"
        },
        {
            "bufferView" : 25,
            "componentType" : 5126,
            "count" : 237,
            "type" : "VEC2"
        },
        {
            "bufferView" : 26,
            "componentType" : 5123,
            "count" : 513,
            "type" : "SCALAR"
        }
    ],
    "bufferViews" : [
        {
            "buffer" : 0,
            "byteLength" : 3132,
            "byteOffset" : 0
        },
        {
            "buffer" : 0,
            "byteLength" : 3132,
            "byteOffset" : 3132
        },
        {
            "buffer" : 0,
            "byteLength" : 2088,
            "byteOffset" : 6264
        },
        {
            "buffer" : 0,
            "byteLength" : 4176,
            "byteOffset" : 8352
        },
        {
            "buffer" : 0,
            "byteLength" : 1752,
            "byteOffset" : 12528
        },
        {
            "buffer" : 0,
            "byteLength" : 720,
            "byteOffset" : 14280
        },
        {
            "buffer" : 0,
            "byteLength" : 720,
            "byteOffset" : 15000
        },
        {
            "buffer" : 0,
            "byteLength" : 480,
            "byteOffset" : 15720
        },
        {
            "buffer" : 0,
            "byteLength" : 960,
            "byteOffset" : 16200
        },
        {
            "buffer" : 0,
            "byteLength" : 180,
            "byteOffset" : 17160
        },
        {
            "buffer" : 0,
            "byteLength" : 1560,
            "byteOffset" : 17340
        },
        {
            "buffer" : 0,
            "byteLength" : 1560,
            "byteOffset" : 18900
        },
        {
            "buffer" : 0,
            "byteLength" : 1040,
            "byteOffset" : 20460
        },
        {
            "buffer" : 0,
            "byteLength" : 1152,
            "byteOffset" : 21500
        },
        {
            "buffer" : 0,
            "byteLength" : 8472,
            "byteOffset" : 22652
        },
        {
            "buffer" : 0,
            "byteLength" : 8472,
            "byteOffset" : 31124
        },
        {
            "buffer" : 0,
            "byteLength" : 5648,
            "byteOffset" : 39596
        },
        {
            "buffer" : 0,
            "byteLength" : 7296,
            "byteOffset" : 45244
        },
        {
            "buffer" : 0,
            "byteLength" : 180900,
            "byteOffset" : 52540
        },
        {
            "buffer" : 0,
            "byteLength" : 180900,
            "byteOffset" : 233440
        },
        {
            "buffer" : 0,
            "byteLength" : 120600,
            "byteOffset" : 414340
        },
        {
            "buffer" : 0,
            "byteLength" : 241200,
            "byteOffset" : 534940
        },
        {
            "buffer" : 0,
            "byteLength" : 158760,
            "byteOffset" : 776140
        },
        {
            "buffer" : 0,
            "byteLength" : 2844,
            "byteOffset" : 934900
        },
        {
            "buffer" : 0,
            "byteLength" : 2844,
            "byteOffset" : 937744
        },
        {
            "buffer" : 0,
            "byteLength" : 1896,
            "byteOffset" : 940588
        },
        {
            "buffer" : 0,
            "byteLength" : 1026,
            "byteOffset" : 942484
        }
    ],
    "buffers" : [
        {
            "byteLength" : 943512,
            "uri" : "data:application/octet-stream;base64,"
        }
    ]
}
