{
    "asset" : {
        "generator" : "Khronos glTF Blender I/O v1.3.48",
        "version" : "2.0"
    },
    "scene" : 0,
    "scenes" : [
        {
            "name" : "Scene",
            "nodes" : [
                0,
                1,
                2,
                3,
                4
            ]
        }
    ],
    "nodes" : [
        {
            "name" : "Light",
            "rotation" : [
                0.16907575726509094,
                0.7558803558349609,
                -0.27217137813568115,
                0.570947527885437
            ],
            "translation" : [
                4.076245307922363,
                5.903861999511719,
                -1.0054539442062378
            ]
        },
        {
            "name" : "Camera",
            "rotation" : [
                0.483536034822464,
                0.33687159419059753,
                -0.20870360732078552,
                0.7804827094078064
            ],
            "translation" : [
                7.358891487121582,
                4.958309173583984,
                6.925790786743164
            ]
        },
        {
            "name" : "\u0411\u0435\u0441\u043a\u043e\u043d\u0435\u0447\u043d\u044b\u0439_\u0441\u0432\u0435\u0442__0",
            "rotation" : [
                -0.4472135305404663,
                -0.8944272398948669,
                0,
                -5.212559273104489e-08
            ],
            "scale" : [
                0,
                0.03100000135600567,
                0.1279367208480835
            ],
            "translation" : [
                0.029625002294778824,
                0,
                0
            ]
        },
        {
            "name" : "\u0418\u0441\u0442\u043e\u0447\u043d\u0438\u043a_\u0441\u0432\u0435\u0442\u0430_\u043d\u0430_\u0431\u0430\u0437\u0435_\u0438\u0437\u043e\u0431\u0440\u0430\u0436\u0435\u043d\u0438",
            "rotation" : [
                0.7071068286895752,
                0,
                0,
                0.7071067094802856
            ],
            "scale" : [
                0.0010000000474974513,
                0.0010000000474974513,
                0.0010000000474974513
            ]
        },
        {
            "mesh" : 0,
            "name" : "\u0412\u043b\u0430\u0434\u0438\u0441\u043b\u0430\u0432",
            "rotation" : [
                0.7071068286895752,
                0,
                0,
                0.7071067094802856
            ],
            "scale" : [
                0.00035277800634503365,
                3.520000291246106e-07,
                0.00035277800634503365
            ],
            "translation" : [
                -0.11271300911903381,
                -0.13758301734924316,
                5.764999150414951e-05
            ]
        }
    ],
    "materials" : [
        {
            "doubleSided" : true,
            "emissiveFactor" : [
                0,
                0,
                0
            ],
            "name" : "\u0412\u043b\u0430\u0434\u0438\u0441\u043b\u0430\u0432_\u041c\u0430\u0442\u0435\u0440\u0438\u0430\u043b_\u043f\u0435\u0440\u0435\u0434\u043d\u0435\u0439_\u0432\u044b\u043f\u0443\u043a",
            "pbrMetallicRoughness" : {
                "baseColorTexture" : {
                    "index" : 0,
                    "texCoord" : 0
                },
                "metallicFactor" : 0,
                "roughnessFactor" : 0.5
            }
        },
        {
            "doubleSided" : true,
            "emissiveFactor" : [
                0,
                0,
                0
            ],
            "name" : "\u0412\u043b\u0430\u0434\u0438\u0441\u043b\u0430\u0432_\u041c\u0430\u0442\u0435\u0440\u0438\u0430\u043b_\u044d\u043a\u0441\u0442\u0440\u0443\u0437\u0438\u0438",
            "pbrMetallicRoughness" : {
                "baseColorTexture" : {
                    "index" : 1,
                    "texCoord" : 0
                },
                "metallicFactor" : 0,
                "roughnessFactor" : 0.5
            }
        },
        {
            "doubleSided" : true,
            "emissiveFactor" : [
                0,
                0,
                0
            ],
            "name" : "\u0412\u043b\u0430\u0434\u0438\u0441\u043b\u0430\u0432_\u041c\u0430\u0442\u0435\u0440\u0438\u0430\u043b_\u0437\u0430\u0434\u043d\u0435\u0439_\u0432\u044b\u043f\u0443\u043a\u043b\u043e",
            "pbrMetallicRoughness" : {
                "baseColorTexture" : {
                    "index" : 2,
                    "texCoord" : 0
                },
                "metallicFactor" : 0,
                "roughnessFactor" : 0.5
            }
        }
    ],
    "meshes" : [
        {
            "name" : "\u0412\u043b\u0430\u0434\u0438\u0441\u043b\u0430\u0432",
            "primitives" : [
                {
                    "attributes" : {
                        "POSITION" : 0,
                        "NORMAL" : 1,
                        "TEXCOORD_0" : 2
                    },
                    "indices" : 3,
                    "material" : 0
                },
                {
                    "attributes" : {
                        "POSITION" : 4,
                        "NORMAL" : 5,
                        "TEXCOORD_0" : 6
                    },
                    "indices" : 7,
                    "material" : 1
                },
                {
                    "attributes" : {
                        "POSITION" : 8,
                        "NORMAL" : 9,
                        "TEXCOORD_0" : 10
                    },
                    "indices" : 11,
                    "material" : 2
                }
            ]
        }
    ],
    "textures" : [
        {
            "source" : 0
        },
        {
            "source" : 1
        },
        {
            "source" : 2
        }
    ],
    "images" : [
        {
            "bufferView" : 4,
            "mimeType" : "image/jpeg",
            "name" : "me"
        },
        {
            "bufferView" : 9,
            "mimeType" : "image/png",
            "name" : "\u0412\u043b\u0430\u0434\u0438\u0441\u043b\u0430\u0432 \u041c\u0430\u0442\u0435\u0440\u0438\u0430\u043b \u044d\u043a\u0441\u0442\u0440\u0443\u0437\u0438\u0438 - \u0422\u0435\u043a"
        },
        {
            "bufferView" : 14,
            "mimeType" : "image/png",
            "name" : "\u0412\u043b\u0430\u0434\u0438\u0441\u043b\u0430\u0432"
        }
    ],
    "accessors" : [
        {
            "bufferView" : 0,
            "componentType" : 5126,
            "count" : 860,
            "max" : [
                482.9980163574219,
                0,
                -129.0030059814453
            ],
            "min" : [
                156.00201416015625,
                0,
                -650.9970092773438
            ],
            "type" : "VEC3"
        },
        {
            "bufferView" : 1,
            "componentType" : 5126,
            "count" : 860,
            "type" : "VEC3"
        },
        {
            "bufferView" : 2,
            "componentType" : 5126,
            "count" : 860,
            "type" : "VEC2"
        },
        {
            "bufferView" : 3,
            "componentType" : 5123,
            "count" : 2574,
            "type" : "SCALAR"
        },
        {
            "bufferView" : 5,
            "componentType" : 5126,
            "count" : 926,
            "max" : [
                482.9980163574219,
                0,
                -129.0030059814453
            ],
            "min" : [
                156.00201416015625,
                -326.9950256347656,
                -650.9970092773438
            ],
            "type" : "VEC3"
        },
        {
            "bufferView" : 6,
            "componentType" : 5126,
            "count" : 926,
            "type" : "VEC3"
        },
        {
            "bufferView" : 7,
            "componentType" : 5126,
            "count" : 926,
            "type" : "VEC2"
        },
        {
            "bufferView" : 8,
            "componentType" : 5123,
            "count" : 1788,
            "type" : "SCALAR"
        },
        {
            "bufferView" : 10,
            "componentType" : 5126,
            "count" : 1913,
            "max" : [
                482.9980163574219,
                -326.9950256347656,
                -129.0030059814453
            ],
            "min" : [
                156.00201416015625,
                -326.9950256347656,
                -650.9970092773438
            ],
            "type" : "VEC3"
        },
        {
            "bufferView" : 11,
            "componentType" : 5126,
            "count" : 1913,
            "type" : "VEC3"
        },
        {
            "bufferView" : 12,
            "componentType" : 5126,
            "count" : 1913,
            "type" : "VEC2"
        },
        {
            "bufferView" : 13,
            "componentType" : 5123,
            "count" : 2574,
            "type" : "SCALAR"
        }
    ],
    "bufferViews" : [
        {
            "buffer" : 0,
            "byteLength" : 10320,
            "byteOffset" : 0
        },
        {
            "buffer" : 0,
            "byteLength" : 10320,
            "byteOffset" : 10320
        },
        {
            "buffer" : 0,
            "byteLength" : 6880,
            "byteOffset" : 20640
        },
        {
            "buffer" : 0,
            "byteLength" : 5148,
            "byteOffset" : 27520
        },
        {
            "buffer" : 0,
            "byteLength" : 288236,
            "byteOffset" : 32668
        },
        {
            "buffer" : 0,
            "byteLength" : 11112,
            "byteOffset" : 320904
        },
        {
            "buffer" : 0,
            "byteLength" : 11112,
            "byteOffset" : 332016
        },
        {
            "buffer" : 0,
            "byteLength" : 7408,
            "byteOffset" : 343128
        },
        {
            "buffer" : 0,
            "byteLength" : 3576,
            "byteOffset" : 350536
        },
        {
            "buffer" : 0,
            "byteLength" : 18418,
            "byteOffset" : 354112
        },
        {
            "buffer" : 0,
            "byteLength" : 22956,
            "byteOffset" : 372532
        },
        {
            "buffer" : 0,
            "byteLength" : 22956,
            "byteOffset" : 395488
        },
        {
            "buffer" : 0,
            "byteLength" : 15304,
            "byteOffset" : 418444
        },
        {
            "buffer" : 0,
            "byteLength" : 5148,
            "byteOffset" : 433748
        },
        {
            "buffer" : 0,
            "byteLength" : 176313,
            "byteOffset" : 438896
        }
    ],
    "buffers" : [
        {
            "byteLength" : 615212,
            "uri" : "data:application/octet-stream;base64,"
        }
    ]
}
