<svg xmlns="http://www.w3.org/2000/svg" xmlns:xlink="http://www.w3.org/1999/xlink" width="70" height="54" viewBox="0 0 70 54"><defs><path id="w131a" d="M765 6414.44V6442h-70v-27.56l6.38-5.31h1.52v-10.56c0-5.83 4.56-10.57 10.16-10.57h33.88c5.6 0 10.16 4.74 10.16 10.57v10.56h1.52zm-15.41-2.96l-2.82 2.35h13.88l-2.82-2.35zm.73-2.35v-10.56a3.46 3.46 0 0 0-3.38-3.53h-33.88a3.46 3.46 0 0 0-3.38 3.53v10.56h8.22l-2.86-8.9 7.73-3.2 4.15 12.1h4.58l1.93-7.35 2.18.62-1.77 6.73h5.1l1.25-3.24a3.56 3.56 0 0 1-1.16-2.63 3.46 3.46 0 0 1 3.39-3.52 3.46 3.46 0 0 1 3.39 3.52 3.46 3.46 0 0 1-3.4 3.52l-.12-.01-.91 2.36zm-9.85 2.35l-.9 2.35h3.58l2.82-2.35zm1.95-7.05c.62 0 1.13-.52 1.13-1.17 0-.65-.5-1.17-1.13-1.17-.62 0-1.13.52-1.13 1.17 0 .65.5 1.17 1.13 1.17zm-9.2 7.05l-.61 2.35h4.53l.9-2.35zm-5.49 0l.8 2.35h1.74l.61-2.35zm-6.3-11.37l-3.57 1.48 3.92 12.24h4.36zm-16.27 9.02h2.26v-10.56a5.77 5.77 0 0 1 5.64-5.87h33.88a5.77 5.77 0 0 1 5.64 5.87v10.56h2.26v-10.56c0-4.54-3.55-8.22-7.9-8.22h-33.88c-4.35 0-7.9 3.68-7.9 8.22zm10.16 6.43l-4.9-4.08h-8.25l-4.91 4.08v24.1h18.06zm4.08-1.73l-.75-2.35h-4.62l2.82 2.35zm43.34 2.34h-45.16v23.48h45.16z"/><path id="w131b" d="M720.45 6420.92v-2.63H723v2.63z"/><path id="w131c" d="M724.27 6420.92v-2.63h10.18v2.63z"/></defs><g><g transform="translate(-695 -6388)"><g><use xlink:href="#w131a"/></g><g><use xlink:href="#w131b"/></g><g><use xlink:href="#w131c"/></g></g></g></svg>