<svg xmlns="http://www.w3.org/2000/svg" xmlns:xlink="http://www.w3.org/1999/xlink" width="58" height="61" viewBox="0 0 58 61"><defs><path id="v8x9a" d="M96.01 6386h57.48v61H96z"/><path id="v8x9c" d="M105.58 6388.03v46.77c0 1.12.86 2.03 1.92 2.03h44.07v8.14H97.92v-56.94zm45.99 58.97c1.05 0 1.91-.91 1.91-2.03v-8.14c0-1.12-.86-2.03-1.91-2.03H107.5v-46.77c0-1.12-.86-2.03-1.92-2.03h-7.66c-1.06 0-1.92.91-1.92 2.03v56.94c0 1.12.86 2.03 1.92 2.03z"/><path id="v8x9d" d="M97 6447a1 1 0 0 1-.92-.64c-.16-.4-.07-.84.21-1.14l9.37-9.85a.96.96 0 0 1 1.4 0c.38.41.39 1.07 0 1.48l-9.36 9.85c-.19.2-.44.3-.7.3"/><path id="v8x9e" d="M106.44 6393.95h-4.5c-.5 0-.9-.6-.9-1.32 0-.74.4-1.33.9-1.33h4.5c.5 0 .9.6.9 1.33 0 .73-.4 1.32-.9 1.32"/><path id="v8x9f" d="M106.44 6413.85h-4.5c-.5 0-.9-.6-.9-1.32 0-.74.4-1.33.9-1.33h4.5c.5 0 .9.6.9 1.33 0 .73-.4 1.32-.9 1.32"/><path id="v8x9g" d="M106.44 6433.74h-4.5c-.5 0-.9-.6-.9-1.32 0-.74.4-1.33.9-1.33h4.5c.5 0 .9.6.9 1.33 0 .73-.4 1.32-.9 1.32"/><path id="v8x9h" d="M106.33 6397.93h-3.02c-.56 0-1.01-.6-1.01-1.32 0-.74.45-1.33 1-1.33h3.03c.56 0 1.01.6 1.01 1.33 0 .73-.45 1.32-1 1.32"/><path id="v8x9i" d="M106.33 6401.91h-3.02c-.56 0-1.01-.6-1.01-1.32 0-.74.45-1.33 1-1.33h3.03c.56 0 1.01.6 1.01 1.33 0 .73-.45 1.32-1 1.32"/><path id="v8x9j" d="M106.33 6405.9h-3.02c-.56 0-1.01-.6-1.01-1.33 0-.74.45-1.33 1-1.33h3.03c.56 0 1.01.6 1.01 1.33 0 .73-.45 1.32-1 1.32"/><path id="v8x9k" d="M106.33 6409.87h-3.02c-.56 0-1.01-.6-1.01-1.32 0-.74.45-1.33 1-1.33h3.03c.56 0 1.01.6 1.01 1.33 0 .73-.45 1.32-1 1.32"/><path id="v8x9l" d="M106.33 6417.82h-3.02c-.56 0-1.01-.6-1.01-1.32 0-.74.45-1.33 1-1.33h3.03c.56 0 1.01.6 1.01 1.33 0 .73-.45 1.32-1 1.32"/><path id="v8x9m" d="M106.33 6421.8h-3.02c-.56 0-1.01-.6-1.01-1.32 0-.74.45-1.33 1-1.33h3.03c.56 0 1.01.6 1.01 1.33 0 .73-.45 1.32-1 1.32"/><path id="v8x9n" d="M106.33 6425.78h-3.02c-.56 0-1.01-.6-1.01-1.32 0-.74.45-1.33 1-1.33h3.03c.56 0 1.01.6 1.01 1.33 0 .73-.45 1.32-1 1.32"/><path id="v8x9o" d="M106.33 6429.76h-3.02c-.56 0-1.01-.6-1.01-1.32 0-.74.45-1.33 1-1.33h3.03c.56 0 1.01.6 1.01 1.33 0 .73-.45 1.32-1 1.32"/><path id="v8x9p" d="M109.87 6441.7c-.33 0-.65-.1-.9-.28a.85.85 0 0 1-.36-.67v-4.73c0-.53.56-.95 1.26-.95s1.26.42 1.26.95v4.73c0 .25-.13.5-.37.67a1.5 1.5 0 0 1-.89.28"/><path id="v8x9q" d="M128.78 6441.7c-.33 0-.65-.1-.9-.28a.85.85 0 0 1-.36-.67v-4.73c0-.53.56-.95 1.26-.95s1.26.42 1.26.95v4.73c0 .25-.13.5-.37.67a1.5 1.5 0 0 1-.89.28"/><path id="v8x9r" d="M147.7 6441.7c-.34 0-.66-.1-.9-.28a.85.85 0 0 1-.37-.67v-4.73c0-.53.56-.95 1.26-.95s1.26.42 1.26.95v4.73c0 .25-.13.5-.37.67a1.5 1.5 0 0 1-.89.28"/><path id="v8x9s" d="M113.65 6440.37a1.4 1.4 0 0 1-.9-.3.98.98 0 0 1-.36-.76v-3.18c0-.58.56-1.06 1.26-1.06s1.26.48 1.26 1.06v3.18c0 .28-.13.55-.37.75-.23.2-.55.31-.89.31"/><path id="v8x9t" d="M117.43 6440.37a1.4 1.4 0 0 1-.9-.3.98.98 0 0 1-.36-.76v-3.18c0-.58.56-1.06 1.26-1.06s1.26.48 1.26 1.06v3.18c0 .28-.13.55-.37.75-.23.2-.55.31-.89.31"/><path id="v8x9u" d="M121.22 6440.37a1.4 1.4 0 0 1-.9-.3.98.98 0 0 1-.36-.76v-3.18c0-.58.56-1.06 1.26-1.06s1.26.48 1.26 1.06v3.18c0 .28-.13.55-.37.75-.23.2-.55.31-.89.31"/><path id="v8x9v" d="M125 6440.37a1.4 1.4 0 0 1-.9-.3.98.98 0 0 1-.36-.76v-3.18c0-.58.56-1.06 1.26-1.06s1.26.48 1.26 1.06v3.18c0 .28-.13.55-.37.75-.23.2-.55.31-.89.31"/><path id="v8x9w" d="M132.56 6440.37a1.4 1.4 0 0 1-.9-.3.98.98 0 0 1-.36-.76v-3.18c0-.58.56-1.06 1.26-1.06s1.26.48 1.26 1.06v3.18c0 .28-.13.55-.37.75-.23.2-.55.31-.89.31"/><path id="v8x9x" d="M136.35 6440.37a1.4 1.4 0 0 1-.9-.3.98.98 0 0 1-.36-.76v-3.18c0-.58.56-1.06 1.26-1.06s1.26.48 1.26 1.06v3.18c0 .28-.13.55-.37.75-.23.2-.55.31-.89.31"/><path id="v8x9y" d="M140.13 6440.37a1.4 1.4 0 0 1-.9-.3.98.98 0 0 1-.36-.76v-3.18c0-.58.56-1.06 1.26-1.06s1.26.48 1.26 1.06v3.18c0 .28-.13.55-.37.75-.23.2-.55.31-.89.31"/><path id="v8x9z" d="M143.3 6440.28a.9.9 0 0 1-.66-.3c-.18-.2-.28-.45-.28-.72v-3.08c0-.56.42-1.02.94-1.02.53 0 .95.46.95 1.02v3.08c0 .27-.1.53-.28.72a.9.9 0 0 1-.67.3"/><path id="v8x9A" d="M133.87 6410.01c-.33 0-.65-.1-.94-.27l-17.47-10.99c-.3-.18-.47-.52-.47-.89 0-.36.18-.7.47-.88.3-.19.65-.19.95 0l17.46 10.98 17.46-10.98c.29-.19.65-.19.94 0 .3.18.47.52.47.88 0 .37-.18.7-.47.89l-17.46 10.98c-.29.18-.61.28-.94.28"/><path id="v8x9B" d="M133.86 6429.01a.9.9 0 0 1-.66-.3c-.18-.19-.28-.45-.28-.72v-18.44c0-.56.42-1.02.94-1.02.53 0 .95.46.95 1.02V6428c0 .27-.1.53-.28.72a.9.9 0 0 1-.67.3"/><path id="v8x9C" d="M116.88 6397.88l16.99-9.7 16.98 9.7v19.25l-16.98 9.7-17-9.7zm16.99 31.14c.15 0 .3-.05.44-.12l17.93-10.24c.3-.18.5-.53.5-.91v-20.48c0-.38-.2-.73-.5-.91l-17.93-10.24a.88.88 0 0 0-.88 0l-17.94 10.24c-.3.18-.5.53-.5.9v20.49c0 .38.2.73.5.9l17.94 10.25c.13.07.28.12.44.12z"/><clipPath id="v8x9b"><use xlink:href="#v8x9a"/></clipPath></defs><g><g transform="translate(-96 -6386)"><g><g/><g clip-path="url(#v8x9b)"><use fill="#09090b" xlink:href="#v8x9c"/></g></g><g><use fill="#09090b" xlink:href="#v8x9d"/></g><g><use fill="#09090b" xlink:href="#v8x9e"/></g><g><use fill="#09090b" xlink:href="#v8x9f"/></g><g><use fill="#09090b" xlink:href="#v8x9g"/></g><g><use fill="#09090b" xlink:href="#v8x9h"/></g><g><use fill="#09090b" xlink:href="#v8x9i"/></g><g><use fill="#09090b" xlink:href="#v8x9j"/></g><g><use fill="#09090b" xlink:href="#v8x9k"/></g><g><use fill="#09090b" xlink:href="#v8x9l"/></g><g><use fill="#09090b" xlink:href="#v8x9m"/></g><g><use fill="#09090b" xlink:href="#v8x9n"/></g><g><use fill="#09090b" xlink:href="#v8x9o"/></g><g><use fill="#09090b" xlink:href="#v8x9p"/></g><g><use fill="#09090b" xlink:href="#v8x9q"/></g><g><use fill="#09090b" xlink:href="#v8x9r"/></g><g><use fill="#09090b" xlink:href="#v8x9s"/></g><g><use fill="#09090b" xlink:href="#v8x9t"/></g><g><use fill="#09090b" xlink:href="#v8x9u"/></g><g><use fill="#09090b" xlink:href="#v8x9v"/></g><g><use fill="#09090b" xlink:href="#v8x9w"/></g><g><use fill="#09090b" xlink:href="#v8x9x"/></g><g><use fill="#09090b" xlink:href="#v8x9y"/></g><g><g><use fill="#09090b" xlink:href="#v8x9z"/></g><g><use fill="#09090b" xlink:href="#v8x9A"/></g><g><use fill="#09090b" xlink:href="#v8x9B"/></g><g><use fill="#09090b" xlink:href="#v8x9C"/></g></g></g></g></svg>