<svg xmlns="http://www.w3.org/2000/svg" xmlns:xlink="http://www.w3.org/1999/xlink" width="46" height="61" viewBox="0 0 46 61"><defs><path id="vox1a" d="M1041 6384.22v48.56c0 .32-.13.63-.37.86l-10.42 10a1.3 1.3 0 0 1-.9.36h-33.05c-.7 0-1.26-.54-1.26-1.22v-58.56c0-.68.57-1.22 1.26-1.22h43.48c.7 0 1.26.54 1.26 1.22zm-4.32 49.77h-6.1v5.86zm1.8-48.56h-40.95v56.14h30.52v-8.8c0-.32.13-.63.37-.86.23-.23.55-.36.89-.36l9.16.01z"/><path id="vox1b" d="M1015 6432.5c0 3.03-2.7 5.5-6 5.5s-6-2.47-6-5.5 2.7-5.5 6-5.5 6 2.47 6 5.5zm-2.63 0c0-1.7-1.51-3.09-3.37-3.09s-3.37 1.39-3.37 3.09 1.51 3.09 3.37 3.09 3.37-1.39 3.37-3.09z"/><path id="vox1c" d="M1024.8 6432h-6.6c-.66 0-1.2.45-1.2 1s.54 1 1.2 1h6.6c.66 0 1.2-.45 1.2-1s-.54-1-1.2-1z"/><path id="vox1d" d="M1007.78 6390h-3.56c-.67 0-1.22.45-1.22 1s.55 1 1.22 1h3.56c.67 0 1.22-.45 1.22-1s-.55-1-1.22-1z"/><path id="vox1e" d="M1033.7 6390h-11.4c-.71 0-1.3.45-1.3 1s.59 1 1.3 1h11.4c.71 0 1.3-.45 1.3-1s-.59-1-1.3-1z"/><path id="vox1f" d="M1033.69 6395h-19.38c-.72 0-1.31.45-1.31 1s.59 1 1.31 1h19.38c.72 0 1.31-.45 1.31-1s-.59-1-1.31-1z"/><path id="vox1g" d="M1031.74 6405h-29.48c-.7 0-1.26.45-1.26 1s.57 1 1.26 1h29.48c.7 0 1.26-.45 1.26-1s-.57-1-1.26-1z"/><path id="vox1h" d="M1031.74 6410h-29.48c-.7 0-1.26.45-1.26 1s.57 1 1.26 1h29.48c.7 0 1.26-.45 1.26-1s-.57-1-1.26-1z"/><path id="vox1i" d="M1031.74 6414h-29.48c-.7 0-1.26.45-1.26 1s.57 1 1.26 1h29.48c.7 0 1.26-.45 1.26-1s-.57-1-1.26-1z"/><path id="vox1j" d="M1033.43 6418h-.86c-.87 0-1.57.45-1.57 1s.7 1 1.57 1h.86c.87 0 1.57-.45 1.57-1s-.7-1-1.57-1z"/><path id="vox1k" d="M1026.73 6418h-24.46c-.7 0-1.27.45-1.27 1s.57 1 1.27 1h24.46c.7 0 1.27-.45 1.27-1s-.57-1-1.27-1z"/></defs><g><g transform="translate(-995 -6383)"><g><use xlink:href="#vox1a"/></g><g><use xlink:href="#vox1b"/></g><g><use xlink:href="#vox1c"/></g><g><use xlink:href="#vox1d"/></g><g><use xlink:href="#vox1e"/></g><g><use xlink:href="#vox1f"/></g><g><use xlink:href="#vox1g"/></g><g><use xlink:href="#vox1h"/></g><g><use xlink:href="#vox1i"/></g><g><use xlink:href="#vox1j"/></g><g><use xlink:href="#vox1k"/></g></g></g></svg>