<svg xmlns="http://www.w3.org/2000/svg" xmlns:xlink="http://www.w3.org/1999/xlink" width="72" height="50" viewBox="0 0 72 50"><defs><path id="4hiaa" d="M419 6431.5c0 3.58-3.14 6.5-7 6.5s-7-2.92-7-6.5 3.14-6.5 7-6.5 7 2.92 7 6.5zm-2.33 0c0-2.39-2.1-4.33-4.67-4.33s-4.67 1.94-4.67 4.33 2.1 4.33 4.67 4.33 4.67-1.94 4.67-4.33z"/><path id="4hiab" d="M460 6431.5c0 3.58-3.14 6.5-7 6.5s-7-2.92-7-6.5 3.14-6.5 7-6.5 7 2.92 7 6.5zm-2.33 0c0-2.39-2.1-4.33-4.67-4.33s-4.67 1.94-4.67 4.33 2.1 4.33 4.67 4.33 4.67-1.94 4.67-4.33z"/><path id="4hiac" d="M466.8 6418.14l-11.04-16.6a1.24 1.24 0 0 0-1.03-.54h-13.5a1.2 1.2 0 0 0-1.23 1.19v29.62c0 .66.55 1.19 1.23 1.19h4.9v-2.37h-3.68v-27.26h11.6l10.5 15.76v11.5h-6.14v2.37h7.36a1.2 1.2 0 0 0 1.23-1.19v-13.03c0-.23-.07-.45-.2-.64z"/><path id="4hiad" d="M448.37 6414.82v-7.64h9.5V6405H447.2c-.66 0-1.19.49-1.19 1.1v9.8c0 .61.53 1.1 1.19 1.1H465v-2.18h-16.63z"/><path id="4hiae" d="M441.8 6393h-45.6c-.66 0-1.2.51-1.2 1.15v36.7c0 .64.54 1.15 1.2 1.15h9.6v-2.3h-8.4v-34.4h43.2v34.4h-22.8v2.3h24c.66 0 1.2-.51 1.2-1.15v-36.7c0-.64-.54-1.15-1.2-1.15z"/><path id="4hiaf" d="M396 6427v-2h8v2z"/><path id="4hiag" d="M420 6427v-2h20v2z"/><path id="4hiah" d="M461 6427v-2h5v2z"/><path id="4hiai" d="M400 6400v-2h42v2z"/><path id="4hiaj" d="M410 6432v-2h3v2z"/><path id="4hiak" d="M452 6432v-2h3v2z"/><path id="4hial" d="M400 6390v-2h16v2z"/><path id="4hiam" d="M395 6390v-2h3v2z"/></defs><g><g transform="translate(-395 -6388)"><g><use xlink:href="#4hiaa"/></g><g><use xlink:href="#4hiab"/></g><g><use xlink:href="#4hiac"/></g><g><use xlink:href="#4hiad"/></g><g><use xlink:href="#4hiae"/></g><g><use xlink:href="#4hiaf"/></g><g><use xlink:href="#4hiag"/></g><g><use xlink:href="#4hiah"/></g><g><use xlink:href="#4hiai"/></g><g><use xlink:href="#4hiaj"/></g><g><use xlink:href="#4hiak"/></g><g><use xlink:href="#4hial"/></g><g><use xlink:href="#4hiam"/></g></g></g></svg>