<svg width="246" height="243" viewBox="0 0 246 243" fill="none" xmlns="http://www.w3.org/2000/svg">
<g clip-path="url(#clip0)">
<path fill-rule="evenodd" clip-rule="evenodd" d="M243.6 114.791C242.191 115.559 240.624 115.938 239.037 116.106C243.662 119.943 245.662 126.139 245.57 132.01C245.471 138.589 242.695 144.724 237.869 149.173C237.574 148.598 237.122 148.119 236.565 147.79C243.435 141.531 246.035 130.742 241.504 122.324C240.721 120.867 239.792 119.547 238.601 118.389C237.742 117.559 236.777 116.846 235.732 116.268C235.132 115.929 234.453 115.439 234.882 114.639C235.367 113.738 236.876 114.172 237.69 114.139C238.745 114.101 239.791 113.933 240.804 113.638C241.755 113.35 242.686 112.923 243.464 112.29C244.077 111.79 244.763 110.9 245.6 111.653C245.49 111.553 245.384 111.456 245.606 111.657C245.825 111.857 245.721 111.763 245.611 111.663C246.925 112.871 244.443 114.336 243.6 114.791ZM216.886 128.233C218.469 129.252 216.508 131.544 215.267 130.157C214.307 129.087 215.645 127.429 216.886 128.233ZM216.886 128.233C217.241 128.46 216.688 128.1 216.886 128.233ZM230.495 127.602C231.263 127.693 231.38 128.468 231.444 129.097C231.585 130.508 231.326 131.931 230.696 133.202C229.381 135.871 226.545 137.652 223.548 137.486C220.498 137.315 217.633 135.285 216.115 132.683C216.553 132.691 216.972 132.632 217.386 132.48C217.884 132.289 217.934 131.943 218.298 132.429C218.846 133.163 219.51 133.803 220.263 134.323C221.684 135.301 223.454 135.815 225.156 135.401C224.458 135.572 223.797 135.734 225.168 135.401C225.17 135.401 225.172 135.4 225.174 135.4C228.068 134.694 230.026 131.706 229.429 128.769C229.298 128.128 229.846 127.526 230.495 127.602ZM225.156 135.401L225.174 135.4L225.168 135.401H225.156ZM30.458 81.513C32.341 81.513 32.373 84.495 30.458 84.495C28.531 84.495 28.551 81.513 30.458 81.513ZM30.685 130.198C29.516 131.389 27.683 129.524 28.881 128.368C30.06 127.243 31.822 129.039 30.685 130.198ZM20.636 135.396C22.352 135.822 24.138 135.296 25.568 134.316C26.3433 133.783 27.0237 133.124 27.581 132.366C27.955 131.86 27.994 132.231 28.503 132.439C28.885 132.593 29.295 132.677 29.706 132.684C27.641 136.222 23.221 138.576 19.213 136.981C17.237 136.191 15.645 134.571 14.864 132.593C14.504 131.672 13.526 127.213 15.635 127.615C15.506 127.59 15.389 127.566 15.643 127.617C15.901 127.671 15.781 127.646 15.652 127.62C16.691 127.839 16.324 128.923 16.296 129.653C16.2658 130.548 16.4517 131.436 16.838 132.244C17.571 133.785 18.976 134.98 20.636 135.396ZM231.815 106.441C230.599 103.376 231.922 99.265 235.674 99.1C237.295 99.03 238.871 99.907 239.592 101.372C239.975 102.146 240.518 105.012 238.714 104.338C237.869 104.023 238.18 103.053 237.91 102.386C237.789 102.089 237.602 101.823 237.363 101.609C237.125 101.394 236.841 101.236 236.533 101.146C235.045 100.7 233.622 101.8 233.343 103.256C232.721 106.548 235.752 108.903 238.821 108.317C242.027 107.703 243.255 104.565 242.879 101.595C242.524 98.835 240.859 96.311 238.464 94.903C233.382 91.912 226.423 93.551 221.45 95.929C224.315 98.616 226.402 102.097 227.66 105.808C228.295 107.676 228.714 109.611 228.909 111.575C229.081 113.341 227.141 113.483 226.971 111.739C226.593 107.884 225.26 104.092 223.106 100.871C222.576 100.075 221.992 99.3171 221.357 98.602C220.865 98.05 219.953 96.702 219.261 97.132C217.669 98.1232 216.234 99.3475 215.004 100.764C217.651 102.573 219.57 105.176 220.623 108.199C221.166 109.746 221.479 111.366 221.595 112.994C221.708 114.519 219.164 114.305 218.245 114.582C216.661 115.054 215.203 115.925 213.959 117.002C213.426 117.471 212.738 118.581 211.968 118.581C211.278 118.581 210.803 117.849 211.072 117.22C211.658 115.861 213.758 114.6 214.988 113.894C216.391 113.094 217.948 112.524 219.559 112.342C219.187 109.15 217.923 106.008 215.596 103.737C215.038 103.198 214.432 102.711 213.786 102.282C213.216 103.042 212.683 103.829 212.189 104.64C211.313 106.06 210.54 107.542 209.877 109.073C207.066 115.568 206.343 123.139 208.115 130.009C209.513 135.426 213.012 140.841 218.335 143.04C223.907 145.347 230.747 143.67 234.494 138.915C238.719 133.554 238.037 125.255 231.942 121.562C229.141 119.865 225.79 119.574 222.777 120.87C221.252 121.527 219.846 122.518 218.764 123.782C218.258 124.366 217.835 125.017 217.506 125.716C217.225 126.318 217.17 125.999 216.594 125.923C216.161 125.873 215.722 125.91 215.304 126.032C217.151 120.096 224.272 116.871 230.042 118.598C236.319 120.481 240.163 127.102 239.005 133.505C237.924 139.506 233.188 144.258 227.292 145.605C220.987 147.045 214.788 144.549 210.773 139.607C202.015 128.817 204.275 111.936 212.077 101.306C209.941 100.241 207.598 99.6578 205.212 99.596C204.417 99.579 203.987 98.641 204.466 98.018C204.996 97.316 206.389 97.695 207.122 97.788C209.278 98.068 211.388 98.733 213.312 99.746C214.675 98.147 216.212 96.754 217.987 95.621C217.281 95.1475 216.538 94.7331 215.764 94.382C214.044 93.6051 212.188 93.1736 210.301 93.112C209.706 93.094 208.974 93.194 208.677 92.527C208.573 92.2906 208.567 92.0226 208.659 91.7816C208.752 91.5405 208.936 91.3459 209.172 91.24C209.842 90.939 210.51 90.64 211.183 90.343L231.629 81.21C231.714 81.171 229.729 77.175 229.535 76.802C225.752 78.7122 221.948 80.5799 218.123 82.405C217.973 81.7615 217.663 81.1663 217.221 80.675C221.047 78.8507 224.853 76.9822 228.636 75.07C228.393 74.599 228.142 74.126 227.897 73.653C224.354 66.889 220.865 60.249 216.37 54.044C211.839 47.789 206.698 41.9987 201.024 36.758C189.876 26.465 176.704 18.405 162.459 13.195C132.88 2.375 99.568 4.246 71.397 18.362C58 25.078 45.966 34.422 36.102 45.707C30.809 51.763 26.068 58.381 22.187 65.432C20.554 68.396 19.091 71.449 17.517 74.443C17.064 75.312 17.131 75.235 17.988 75.696L19.317 76.402C21.9973 77.8212 24.6949 79.2076 27.409 80.561C26.9962 81.0764 26.7191 81.687 26.603 82.337C23.1088 80.5995 19.6437 78.8043 16.209 76.952C15.993 77.369 13.715 81.991 13.799 82.023C13.959 82.096 14.122 82.165 14.279 82.236C15.269 82.669 16.253 83.105 17.243 83.539C20.546 84.996 23.852 86.45 27.16 87.905C29.728 89.038 32.295 90.17 34.863 91.301C35.49 91.578 36.169 92.102 35.711 92.87C35.25 93.665 33.511 93.655 32.723 93.878C31.0972 94.3335 29.5294 94.9755 28.051 95.791C29.143 96.515 30.166 97.281 31.099 98.201C31.553 98.654 31.871 99.428 32.484 99.068C32.848 98.854 33.22 98.652 33.6 98.464C35.5752 97.4834 37.7023 96.8447 39.891 96.575C40.663 96.478 42.149 96.413 41.836 97.685C41.599 98.639 40.315 98.474 39.578 98.589C37.3878 98.9281 35.2828 99.6837 33.377 100.815C40.543 110.255 43.158 124.253 37.857 135.18C35.16 140.739 30.346 145.206 24.025 145.921C17.743 146.635 11.273 143.52 8.30401 137.848C4.88301 131.304 6.77101 123.277 13.364 119.653C19.591 116.231 28.181 118.905 30.424 125.964C29.9061 125.86 29.3708 125.879 28.862 126.022C28.162 126.218 28.24 125.621 27.911 125.033C27.3747 124.075 26.6748 123.217 25.843 122.5C24.244 121.126 22.233 120.255 20.128 120.071C15.914 119.699 11.733 122.231 9.73101 125.899C6.37101 132.047 10.13 139.862 16.071 142.7C21.758 145.418 28.482 143.933 32.727 139.36C42.091 129.276 39.534 112.069 31.763 101.906C30.1502 103.165 28.8065 104.736 27.8116 106.524C26.8167 108.312 26.1908 110.282 25.971 112.316C27.703 112.456 29.38 113.053 30.878 113.917C32.096 114.621 34.174 115.869 34.757 117.22C35.027 117.849 34.552 118.581 33.863 118.581C33.089 118.581 32.408 117.471 31.871 117.002C30.627 115.925 29.171 115.054 27.584 114.582C26.556 114.273 23.836 114.414 23.961 112.721C24.078 111.088 24.421 109.475 24.988 107.938C26.0975 104.966 28.0068 102.359 30.505 100.405C29.7815 99.5991 28.9858 98.8611 28.128 98.2C27.6484 97.838 27.154 97.496 26.646 97.175C26.1 96.828 26.048 97.076 25.585 97.452C24.2198 98.5643 23.0562 99.9032 22.145 101.41C21.194 102.977 20.503 104.695 20.019 106.463C19.7537 107.438 19.5454 108.427 19.395 109.426C19.273 110.216 19.36 111.266 19.061 112.005C19.0018 112.147 18.9099 112.273 18.7928 112.373C18.6756 112.474 18.5366 112.545 18.3868 112.581C18.2371 112.617 18.081 112.617 17.9311 112.582C17.7811 112.547 17.6417 112.476 17.524 112.377C16.863 111.804 17.285 110.467 17.382 109.735C17.626 107.911 18.027 106.099 18.632 104.36C19.772 101.081 21.677 98.11 24.382 95.912C22.1601 94.8182 19.8018 94.0265 17.37 93.558C14.069 92.921 10.501 92.903 7.49001 94.575C4.74201 96.106 2.11601 99.113 2.18501 102.433C2.24501 105.595 4.95601 109.02 8.34201 108.724C11.491 108.45 14.543 104.058 11.696 101.467C10.471 100.356 8.56801 100.71 7.93901 102.276C7.69101 102.886 7.94701 103.74 7.38001 104.191C6.87501 104.592 6.08801 104.373 5.86601 103.763C5.33601 102.331 6.55801 100.378 7.67701 99.596C8.30625 99.1588 9.0434 98.9028 9.80815 98.8557C10.5729 98.8086 11.3359 98.9723 12.014 99.329C15.21 100.997 15.317 105.388 13.339 108.036C11.169 110.937 7.02701 111.434 4.08401 109.48C1.01101 107.442 -0.484994 103.477 0.596006 99.935C1.65501 96.469 4.54401 93.618 7.84301 92.239C11.747 90.609 16.244 91.103 20.206 92.227C22.2706 92.8156 24.2638 93.6309 26.149 94.658C27.915 93.533 29.857 92.7 31.861 92.11C29.316 90.986 26.766 89.866 24.221 88.746C20.706 87.198 17.197 85.651 13.682 84.104C12.848 83.735 11.475 83.342 11.249 82.324C11.051 81.426 11.95 80.126 12.319 79.341C12.7376 78.4418 13.172 77.55 13.622 76.666C13.91 76.095 14.313 75.916 13.659 75.557C13.244 75.332 12.828 75.104 12.415 74.876C11.791 74.531 10.934 74.234 10.452 73.683C9.89301 73.045 10.363 72.346 10.658 71.728L12.501 67.862C14.094 64.526 16.02 61.353 17.893 58.17C22.193 51.545 26.812 45.226 32.17 39.405C43.264 27.351 56.732 17.542 71.638 10.748C84.851 4.72601 98.776 1.512 113.178 0.120004C100.375 1.576 87.97 4.411 76.094 9.521C60.824 16.087 47.085 25.818 35.642 37.87C30.2683 43.5227 25.4731 49.6984 21.328 56.305C19.231 59.657 17.253 63.068 15.483 66.607C14.709 68.1617 13.9619 69.7296 13.242 71.31C13.026 71.787 12.809 72.261 12.59 72.739C13.38 73.179 14.177 73.618 14.972 74.054C18.588 67.164 22.06 60.308 26.552 53.927C31.2636 47.2312 36.6531 41.0392 42.635 35.449C64.891 14.654 95.116 2.985 125.584 3.745C156.436 4.514 186.263 17.614 207.679 39.867C213.164 45.5634 218.067 51.7921 222.316 58.461C224.474 61.845 226.384 65.348 228.199 68.925C228.849 70.201 229.503 71.473 230.169 72.742C230.383 73.149 230.595 73.558 230.809 73.966C231.618 73.551 232.426 73.1333 233.232 72.713C226.932 58.762 218.453 46.256 207.712 35.344C197.521 24.987 185.448 16.895 172.362 10.696C159.305 4.506 145.181 1.418 130.882 -0.00799561C140.021 0.751004 149.009 2.082 157.834 4.677C187.259 13.331 213.093 33.122 228.775 59.591C230.68 62.81 232.474 66.072 234.091 69.442C234.561 70.425 235.033 71.409 235.496 72.398C236.022 73.532 235.022 73.982 234.181 74.419C233.63 74.704 233.082 74.991 232.529 75.271C231.96 75.566 231.585 75.457 231.931 76.132C232.375 77.004 232.811 77.883 233.228 78.774C233.651 79.674 235.398 82.716 233.101 82.716C232.523 82.716 231.636 83.342 231.122 83.574L213.279 91.541C214.675 91.842 216.03 92.333 217.303 92.988C217.934 93.313 218.542 93.678 219.13 94.073C219.627 94.412 219.65 94.651 220.222 94.363C220.498 94.227 220.773 94.095 221.054 93.967C223.437 92.871 225.981 92.076 228.577 91.672C232.764 91.019 237.482 91.383 240.875 94.181C244.37 97.072 246.189 102.629 243.943 106.811C241.417 111.518 233.854 111.613 231.815 106.441ZM4.08401 109.48C1.07101 107.48 6.69501 111.213 4.08401 109.48ZM239.101 87.494C238.907 87.5018 238.713 87.471 238.53 87.4035C238.348 87.336 238.18 87.233 238.038 87.1006C237.895 86.9681 237.78 86.8088 237.699 86.6318C237.619 86.4547 237.574 86.2635 237.567 86.069C237.566 85.6856 237.714 85.3169 237.98 85.0404C238.245 84.7639 238.608 84.6013 238.991 84.5868C239.374 84.5722 239.748 84.707 240.034 84.9626C240.319 85.2181 240.495 85.5747 240.523 85.957C240.538 86.3492 240.396 86.7312 240.13 87.0193C239.863 87.3074 239.493 87.4781 239.101 87.494ZM5.92101 87.585C5.7266 87.5932 5.53249 87.5629 5.34984 87.4958C5.16719 87.4287 4.99959 87.3262 4.85668 87.1942C4.71376 87.0621 4.59834 86.9031 4.51705 86.7263C4.43577 86.5496 4.39021 86.3585 4.38301 86.164C4.37157 85.8716 4.4471 85.5823 4.60003 85.3328C4.75297 85.0833 4.97645 84.8847 5.24222 84.7622C5.508 84.6396 5.80413 84.5986 6.0932 84.6444C6.38226 84.6901 6.65127 84.8205 6.86623 85.0191C7.08119 85.2177 7.23244 85.4756 7.30086 85.7602C7.36928 86.0447 7.35181 86.3432 7.25064 86.6178C7.14948 86.8924 6.96916 87.1309 6.7325 87.303C6.49583 87.4752 6.21343 87.5733 5.92101 87.585ZM0.343006 112.01C1.23001 111.148 1.99901 112.223 2.65501 112.721C3.64401 113.423 4.79501 113.801 5.98401 113.989C6.80101 114.117 7.62901 114.158 8.45601 114.15C9.09101 114.145 10.034 113.879 10.604 114.237C11.498 114.793 11.035 115.764 10.328 116.17C8.71101 117.106 7.28801 118.24 6.10401 119.71C3.00601 123.552 1.65101 129.184 2.39501 134.049C3.20801 139.319 5.86801 143.404 9.94801 146.731C9.29858 147.05 8.76661 147.566 8.42801 148.206C4.05301 144.59 0.764006 139.687 0.271006 133.894C-0.278994 127.44 1.57501 120.524 6.63401 116.199C5.08501 116.075 3.53001 115.743 2.15601 114.978C1.31501 114.508 -0.854994 113.173 0.343006 112.01ZM10.179 149.538C10.517 147.839 13.108 148.474 12.652 150.121C12.228 151.67 9.87201 151.088 10.179 149.538ZM11.97 153.12C8.99001 165.459 14.405 177.43 21.093 187.542C24.036 191.987 27.026 196.424 30.495 200.483C33.759 204.301 37.2015 207.963 40.811 211.457C55.685 225.857 74.67 235.233 94.445 240.713C98.143 241.567 101.845 242.32 105.588 242.989C101.794 242.407 97.961 241.881 94.238 240.95C84.642 238.543 75.4 235.447 66.559 230.91C57.294 226.155 48.799 220.315 40.903 213.538C32.582 206.395 25.674 197.835 19.482 188.829C12.258 178.321 6.75501 165.716 9.86801 152.787C10.526 153.127 11.241 153.24 11.97 153.12ZM61.982 98.824C62.017 98.824 62.053 98.824 62.086 98.82C62.086 98.82 61.963 98.902 61.982 98.824ZM66.979 68.734C63.282 72.764 60.102 77.244 57.246 81.904C55.7911 84.29 54.4176 86.7248 53.128 89.204C52.697 90.032 51.738 93.145 50.428 93.145C49.712 93.145 48.817 92.549 48.166 92.275C47.382 91.944 46.599 91.608 45.818 91.27C41.6334 89.4579 37.4798 87.575 33.359 85.622C33.799 85.135 34.119 84.538 34.268 83.895C37.7882 85.562 41.3332 87.1758 44.902 88.736C45.839 89.15 46.783 89.554 47.724 89.958C48.196 90.16 48.668 90.362 49.142 90.562C49.748 90.819 49.603 90.781 49.872 90.307C50.515 89.169 51.153 88.028 51.819 86.902C55.309 80.983 59.237 75.375 63.802 70.235C71.618 61.442 81.606 55.42 92.396 50.99C82.845 55.374 74.129 60.941 66.979 68.734ZM52.446 58.842C52.5037 58.7535 52.5837 58.6818 52.678 58.6342C52.7723 58.5866 52.8776 58.5648 52.983 58.571L54.293 58.641C54.3969 58.6476 54.4973 58.6807 54.5848 58.7371C54.6723 58.7934 54.744 58.8712 54.793 58.963L56.954 63.047C57.0103 63.1515 57.0344 63.2702 57.0234 63.3884C57.0123 63.5065 56.9666 63.6188 56.892 63.711L47.622 75.168C47.5655 75.238 47.4938 75.2944 47.4124 75.3328C47.331 75.3713 47.242 75.3908 47.152 75.39L47.072 75.387C46.9695 75.3724 46.8725 75.3318 46.79 75.2692C46.7076 75.2065 46.6425 75.1238 46.601 75.029L46.122 73.932C46.0775 73.8302 46.0621 73.718 46.0772 73.6079C46.0924 73.4978 46.1377 73.394 46.208 73.308C46.613 72.809 46.791 72.465 46.772 72.222C46.751 71.988 46.509 71.682 46.026 71.294L36.994 63.969C36.158 63.294 35.752 63.474 35.225 64.146L34.829 64.64C34.7625 64.7169 34.6787 64.777 34.5845 64.8152C34.4903 64.8535 34.3883 64.8688 34.287 64.86C34.1858 64.8466 34.0894 64.8082 34.0067 64.7484C33.9239 64.6885 33.8574 64.609 33.813 64.517L33.269 63.362C33.2208 63.2592 33.2026 63.145 33.2164 63.0323C33.2302 62.9196 33.2755 62.8131 33.347 62.725L38.578 56.258C38.5492 56.1588 38.5464 56.0538 38.5698 55.9532C38.5933 55.8525 38.6423 55.7597 38.7121 55.6835C38.7819 55.6072 38.8701 55.5503 38.9683 55.518C39.0664 55.4858 39.1713 55.4794 39.2726 55.4994C39.374 55.5194 39.4685 55.5651 39.5471 55.6323C39.6257 55.6994 39.6856 55.7856 39.7212 55.8826C39.7568 55.9796 39.7669 56.0841 39.7504 56.1861C39.7339 56.2881 39.6914 56.3842 39.627 56.465L39.993 57.708C40.0192 57.8024 40.0226 57.9016 40.003 57.9976C39.9833 58.0936 39.9412 58.1835 39.88 58.26C39.495 58.734 39.325 59.092 39.36 59.352C39.398 59.622 39.661 59.952 40.17 60.364L49.481 67.916C49.58 68 49.732 68.126 49.787 68.14C49.836 68.135 50.16 68.058 51.223 66.742C52.194 65.546 52.579 64.876 52.89 64.29C53.588 62.899 53.455 61.538 52.411 59.445C52.3635 59.3502 52.3417 59.2447 52.3479 59.1388C52.354 59.033 52.3879 58.9306 52.446 58.842ZM75.517 40.948C76.656 42.632 77.02 44.587 76.538 46.446C76.041 48.364 74.698 50.11 72.657 51.495C70.577 52.903 68.655 53.616 66.939 53.616C64.831 53.616 63.055 52.571 61.66 50.511L56.608 43.038C56.382 42.701 56.035 42.303 55.691 42.303C55.422 42.303 55.124 42.511 54.862 42.693L54.342 43.047C54.2579 43.1055 54.1602 43.1414 54.0583 43.1512C53.9563 43.1611 53.8535 43.1446 53.7598 43.1034C53.666 43.0621 53.5844 42.9975 53.5228 42.9156C53.4613 42.8338 53.4217 42.7375 53.408 42.636L53.219 41.375C53.2016 41.2626 53.2167 41.1476 53.2624 41.0434C53.3081 40.9393 53.3825 40.8503 53.477 40.787L60.365 36.117C60.456 36.0549 60.5624 36.019 60.6724 36.0132C60.7824 36.0074 60.8919 36.0319 60.989 36.084C61.0863 36.1366 61.1674 36.2146 61.2238 36.3097C61.2802 36.4048 61.3096 36.5134 61.309 36.624L61.296 37.917C61.2948 38.0148 61.2699 38.1109 61.2234 38.1969C61.1769 38.283 61.1102 38.3564 61.029 38.411C60.042 39.086 59.98 39.457 60.695 40.513L65.281 47.294C67.308 50.294 69.047 50.775 71.491 49.119C72.786 48.245 73.525 47.206 73.686 46.032C73.832 44.966 73.491 43.784 72.7 42.611L67.84 35.427C67.614 35.091 67.269 34.689 66.921 34.689C66.654 34.689 66.356 34.898 66.096 35.082L65.573 35.436C65.4887 35.4939 65.391 35.5292 65.2892 35.5388C65.1874 35.5483 65.0848 35.5318 64.9912 35.4906C64.8976 35.4494 64.816 35.3851 64.7542 35.3036C64.6924 35.2221 64.6524 35.1262 64.638 35.025L64.454 33.763C64.4372 33.6507 64.4523 33.5359 64.4976 33.4318C64.5428 33.3277 64.6164 33.2383 64.71 33.174L70.224 29.435C70.3138 29.3751 70.4179 29.3403 70.5257 29.3341C70.6334 29.3279 70.7408 29.3506 70.8369 29.3998C70.9329 29.4491 71.014 29.5231 71.0719 29.6142C71.1298 29.7053 71.1623 29.8101 71.166 29.918L71.203 31.177C71.2059 31.2785 71.1831 31.3791 71.1367 31.4695C71.0904 31.5598 71.0221 31.6371 70.938 31.694C69.966 32.355 69.789 32.475 70.816 33.998L75.517 40.948ZM106.956 32.707C107.232 33.752 107.661 33.752 107.801 33.752C107.889 33.752 107.986 33.739 108.091 33.709L109.395 33.365C109.505 33.334 109.621 33.3355 109.73 33.3692C109.838 33.4029 109.935 33.4675 110.008 33.555C110.083 33.6419 110.131 33.7481 110.148 33.8614C110.164 33.9747 110.149 34.0904 110.102 34.195L109.508 35.54C109.471 35.6229 109.416 35.6965 109.347 35.7552C109.277 35.8139 109.196 35.8562 109.108 35.879L101.31 37.956C101.209 37.9823 101.104 37.9824 101.003 37.9562C100.903 37.9301 100.811 37.8786 100.735 37.8067C100.66 37.7348 100.605 37.6448 100.575 37.5455C100.544 37.4461 100.54 37.3406 100.562 37.239L100.826 36.072C100.849 35.9638 100.902 35.8642 100.978 35.7842C101.055 35.7043 101.152 35.6471 101.259 35.619C102.478 35.295 102.614 35.067 102.301 33.884L100.978 28.888L93.393 30.909L94.733 35.959C95.012 37.006 95.441 37.006 95.579 37.006C95.667 37.006 95.765 36.994 95.869 36.966L97.175 36.617C97.285 36.5875 97.4011 36.5899 97.5098 36.6237C97.6185 36.6576 97.7153 36.7215 97.7892 36.8082C97.863 36.8949 97.9107 37.0008 97.9268 37.1135C97.9428 37.2262 97.9266 37.3411 97.88 37.445L97.288 38.795C97.2511 38.8774 97.1961 38.9506 97.1273 39.0091C97.0584 39.0675 96.9773 39.1099 96.89 39.133L89.085 41.212C88.9844 41.2376 88.8791 41.2374 88.7786 41.2116C88.6781 41.1857 88.5857 41.135 88.51 41.064C88.4364 40.9913 88.3824 40.9013 88.3528 40.8022C88.3233 40.7031 88.3192 40.5981 88.341 40.497L88.604 39.326C88.6277 39.2181 88.6807 39.1187 88.757 39.0388C88.8334 38.9589 88.9303 38.9016 89.037 38.873C90.26 38.548 90.394 38.321 90.083 37.139L87.098 25.894C86.818 24.841 86.404 24.841 86.27 24.841C86.187 24.841 86.093 24.855 85.992 24.882L84.953 25.161C84.8542 25.1868 84.7504 25.1869 84.6516 25.1613C84.5527 25.1358 84.462 25.0854 84.388 25.015C84.3132 24.9456 84.2572 24.8584 84.225 24.7616C84.1929 24.6647 84.1856 24.5614 84.204 24.461L84.444 23.207C84.4656 23.0951 84.518 22.9915 84.5954 22.9079C84.6728 22.8243 84.7721 22.7641 84.882 22.734L92.921 20.595C93.0275 20.5671 93.1396 20.5688 93.2453 20.5999C93.3509 20.631 93.446 20.6903 93.5204 20.7715C93.5948 20.8527 93.6456 20.9526 93.6674 21.0606C93.6892 21.1685 93.6811 21.2803 93.644 21.384L93.206 22.601C93.1733 22.6933 93.1183 22.7761 93.0459 22.842C92.9735 22.908 92.8859 22.955 92.791 22.979C91.573 23.304 91.437 23.532 91.75 24.713L92.752 28.49L100.335 26.471L99.318 22.639C99.037 21.585 98.626 21.585 98.491 21.585C98.41 21.585 98.315 21.6 98.212 21.627L97.177 21.905C97.0779 21.9305 96.9739 21.9307 96.8746 21.9055C96.7754 21.8804 96.684 21.8307 96.609 21.761C96.534 21.6913 96.4779 21.6038 96.4459 21.5066C96.4139 21.4093 96.4071 21.3056 96.426 21.205L96.666 19.952C96.6872 19.8406 96.7394 19.7375 96.8165 19.6544C96.8936 19.5713 96.9925 19.5115 97.102 19.482L105.143 17.338C105.249 17.3097 105.362 17.3112 105.467 17.3424C105.573 17.3736 105.668 17.4333 105.742 17.515C105.817 17.5958 105.869 17.6958 105.891 17.804C105.912 17.9122 105.904 18.0243 105.866 18.128L105.427 19.346C105.394 19.4379 105.338 19.5204 105.266 19.5862C105.194 19.6521 105.107 19.6994 105.012 19.724C104.392 19.89 104.044 20.065 103.92 20.272C103.796 20.473 103.812 20.862 103.971 21.458L106.956 32.707ZM125.032 19.01C123.99 19.01 122.687 19.31 121.883 21.652C121.848 21.7542 121.787 21.8453 121.705 21.9157C121.623 21.986 121.524 22.0331 121.418 22.052L120.054 22.293C119.957 22.3112 119.856 22.3049 119.762 22.2748C119.667 22.2447 119.582 22.1917 119.513 22.1205C119.444 22.0493 119.394 21.9621 119.367 21.8667C119.34 21.7714 119.337 21.6708 119.358 21.574L120.418 16.539C120.452 16.3949 120.536 16.2676 120.655 16.18C120.775 16.0924 120.921 16.0502 121.069 16.061C121.115 16.066 125.803 16.51 128.911 16.676C132.232 16.846 137.761 16.881 137.816 16.881C137.907 16.8824 137.996 16.9035 138.077 16.9429C138.159 16.9822 138.231 17.0389 138.288 17.109C138.401 17.253 138.442 17.439 138.403 17.619L137.48 21.715C137.463 21.7921 137.431 21.865 137.385 21.9296C137.34 21.9941 137.282 22.049 137.215 22.091L136.04 22.837C135.942 22.8995 135.828 22.9323 135.712 22.9314C135.596 22.9306 135.483 22.896 135.386 22.832C135.289 22.7684 135.213 22.6786 135.165 22.5731C135.117 22.4676 135.101 22.3506 135.117 22.236C135.183 21.806 135.248 20.563 134.773 19.976C134.382 19.487 133.67 19.429 132.099 19.346C131.807 19.3246 131.514 19.3199 131.221 19.332L130.528 31.982C130.498 32.5 130.569 32.878 130.721 33.042C130.892 33.228 131.272 33.239 131.677 33.252L132.711 33.302C132.828 33.3085 132.941 33.349 133.035 33.4184C133.13 33.4878 133.202 33.5832 133.243 33.693C133.285 33.8025 133.294 33.9218 133.269 34.0363C133.244 34.1508 133.186 34.2557 133.103 34.338L131.938 35.485C131.825 35.5958 131.672 35.6576 131.514 35.657H131.482L123.419 35.232C123.315 35.227 123.215 35.1953 123.127 35.1399C123.04 35.0845 122.968 35.0074 122.919 34.916C122.869 34.8246 122.845 34.7219 122.847 34.6179C122.849 34.514 122.878 34.4123 122.931 34.323L123.537 33.29C123.593 33.1938 123.675 33.1151 123.773 33.063C123.872 33.0109 123.983 32.9873 124.094 32.995L124.354 33C125.539 33 125.688 32.595 125.737 31.671L126.395 19.09C126.185 19.063 125.842 19.045 125.511 19.028L125.032 19.01ZM207.08 145.207C207.744 145.759 209.939 146.554 208.891 147.72C207.861 148.854 205.668 146.594 204.982 145.915C203.709 144.647 202.636 143.194 201.798 141.605C198.055 157.902 189.779 172.614 177.195 183.693C155.781 202.536 124.437 208.231 97.526 199.231C71.371 190.484 50.25 168.959 43.812 141.899C42.626 144.086 40.882 146.014 38.873 147.47C38.258 147.916 37.113 148.884 36.293 148.707C35.393 148.51 35.261 147.236 36.105 146.862C38.491 145.799 40.567 143.602 41.877 141.382C42.324 140.618 42.699 139.801 42.934 138.941C43.11 138.294 43.155 137.421 44.042 137.409C45.415 137.409 45.462 140.431 45.694 141.4C46.6037 145.232 47.798 148.99 49.267 152.644C51.858 159.089 55.443 165.075 59.748 170.52C67.877 180.802 78.544 189.02 90.486 194.393C116.504 206.094 148.424 203.155 171.369 185.921C182.926 177.241 191.824 165.331 196.777 151.745C198.141 147.995 199.252 144.158 200.101 140.259C200.274 139.469 200.271 137.849 200.93 137.304C201.501 136.832 202.397 137.199 202.508 137.922C202.708 139.238 203.342 140.493 204.035 141.611C204.864 142.944 205.875 144.204 207.08 145.207ZM152.164 22.505L151.568 22.29C151.472 22.255 151.387 22.1963 151.32 22.1195C151.253 22.0427 151.206 21.9502 151.184 21.8506C151.162 21.751 151.166 21.6475 151.195 21.5497C151.224 21.4519 151.277 21.3629 151.349 21.291L152.257 20.396C152.34 20.314 152.445 20.2581 152.559 20.235C152.673 20.2119 152.792 20.2227 152.9 20.266C152.945 20.281 157.09 21.921 159.745 22.841C162.54 23.817 167.013 25.178 167.061 25.192C167.145 25.2174 167.222 25.2611 167.287 25.3199C167.352 25.3787 167.403 25.4511 167.437 25.532C167.472 25.6129 167.489 25.7006 167.487 25.7888C167.485 25.8771 167.464 25.9638 167.425 26.043L165.606 29.663C165.541 29.792 165.432 29.8937 165.299 29.95L163.88 30.542C163.773 30.5866 163.656 30.5995 163.542 30.5792C163.428 30.5589 163.322 30.5063 163.237 30.4275C163.152 30.3488 163.091 30.2473 163.063 30.1352C163.034 30.023 163.038 29.905 163.074 29.795C163.408 28.778 163.592 27.644 163.468 27.373C163.175 26.706 161.775 26.216 160.423 25.74L159.831 25.531C159.329 25.352 158.704 25.126 158.211 25.126C157.804 25.126 157.603 25.262 157.472 25.628L156.002 29.742L161.468 31.456C161.566 31.4875 161.654 31.5431 161.724 31.6177C161.794 31.6923 161.845 31.7834 161.87 31.8826C161.896 31.9819 161.896 32.086 161.871 32.1853C161.846 32.2847 161.796 32.3761 161.726 32.451L160.471 33.769C160.383 33.8619 160.269 33.9246 160.143 33.9482C160.018 33.9717 159.888 33.9548 159.773 33.9C158.41 33.255 156.21 32.426 155.178 32.043L153.325 37.22C153.279 37.343 153.211 37.526 153.215 37.581C153.233 37.626 153.418 37.904 155.009 38.476C156.558 39.032 157.576 39.256 158.159 39.346C159.573 39.527 160.941 38.974 162.572 37.296C162.645 37.2191 162.737 37.1629 162.839 37.1333C162.941 37.1036 163.049 37.1016 163.152 37.1273C163.255 37.153 163.35 37.2056 163.426 37.2797C163.502 37.3538 163.557 37.4467 163.585 37.549L163.949 38.804C163.978 38.9048 163.981 39.0115 163.957 39.1137C163.933 39.2158 163.882 39.31 163.811 39.387L160.676 42.777C160.596 42.8653 160.492 42.9276 160.376 42.9562C160.26 42.9847 160.139 42.978 160.027 42.937L145.871 37.858C145.774 37.8219 145.687 37.7617 145.619 37.683C145.552 37.6043 145.505 37.5096 145.484 37.408C145.464 37.3059 145.471 37.2005 145.503 37.1015C145.535 37.0026 145.591 36.9133 145.667 36.842L146.544 36.03C146.625 35.9536 146.725 35.9013 146.834 35.8788C146.943 35.8564 147.057 35.8648 147.161 35.903C147.572 36.054 147.882 36.125 148.11 36.125C148.338 36.125 148.622 36.125 149 35.073L152.916 24.118C153.089 23.628 153.123 23.249 153.014 23.02C152.883 22.749 152.503 22.618 152.164 22.505ZM196.761 92.215C195.982 92.562 195.098 92.503 194.676 91.637C192.08 86.321 189.269 81.188 185.867 76.34C182.969 72.204 179.639 68.367 175.836 65.043C173.419 62.927 170.971 60.995 168.384 59.092C165.79 57.175 162.97 55.592 160.211 53.927C158.036 52.818 155.859 51.709 153.683 50.597C164.011 55.341 174.242 60.854 182.076 69.302C186.713 74.2962 190.772 79.7973 194.176 85.701C194.95 87.003 195.66 88.34 196.381 89.675C196.622 90.119 196.498 90.198 197.039 89.955L198.283 89.4C198.993 89.084 199.7 88.763 200.409 88.447C203.763 86.941 207.108 85.4136 210.443 83.865C210.543 84.516 210.807 85.137 211.204 85.66C207.911 87.1898 204.608 88.6992 201.296 90.188C199.785 90.8653 198.273 91.541 196.761 92.215ZM160.211 53.927C159.646 53.635 160.759 54.255 160.211 53.927ZM179.344 34.66L178.816 34.314C178.731 34.2573 178.662 34.1797 178.615 34.0887C178.568 33.9977 178.545 33.8963 178.549 33.794C178.551 33.6918 178.579 33.5917 178.631 33.5035C178.682 33.4152 178.756 33.3417 178.844 33.29L179.941 32.639C180.039 32.5811 180.151 32.552 180.264 32.5548C180.378 32.5576 180.488 32.5923 180.583 32.655L187.503 37.272C187.595 37.3331 187.669 37.4187 187.716 37.5191C187.763 37.6195 187.781 37.7309 187.768 37.841C187.757 37.9502 187.716 38.0543 187.65 38.142C187.584 38.2298 187.496 38.2979 187.394 38.339L186.188 38.814C186.097 38.8505 185.999 38.8642 185.902 38.8539C185.804 38.8436 185.711 38.8097 185.63 38.755C185.16 38.443 184.817 38.288 184.586 38.288C184.405 38.288 184.137 38.383 183.644 39.122L177.199 48.808C176.909 49.239 176.789 49.595 176.838 49.842C176.902 50.145 177.266 50.382 177.616 50.609L178.316 51.074C178.411 51.1371 178.486 51.2259 178.533 51.33C178.58 51.4341 178.597 51.5493 178.581 51.6624C178.565 51.7755 178.517 51.8817 178.443 51.9689C178.37 52.0561 178.273 52.1206 178.164 52.155L176.761 52.6C176.702 52.6197 176.641 52.6299 176.579 52.63C176.459 52.6291 176.343 52.5933 176.243 52.527L169.526 48.045C169.439 47.9878 169.369 47.9088 169.322 47.816C169.275 47.7232 169.254 47.6198 169.259 47.516C169.263 47.4122 169.294 47.3113 169.349 47.2232C169.404 47.135 169.481 47.0626 169.572 47.013L170.62 46.433C170.717 46.3799 170.826 46.3544 170.936 46.3591C171.046 46.3639 171.153 46.3988 171.245 46.46C171.717 46.776 172.063 46.93 172.295 46.93C172.475 46.93 172.744 46.836 173.233 46.097L179.682 36.41C179.97 35.976 180.093 35.616 180.042 35.366C179.982 35.075 179.643 34.856 179.344 34.66ZM214.307 81.795C216.227 81.795 216.196 84.77 214.307 84.77C212.399 84.77 212.383 81.795 214.307 81.795ZM211.347 63.724C211.243 63.7427 211.136 63.7344 211.036 63.6999C210.936 63.6654 210.847 63.6059 210.777 63.527L210.633 63.359C210.324 62.985 210.167 62.823 209.943 62.823C209.764 62.823 209.343 62.927 208.545 63.623L201.259 69.949C200.05 70.997 198.027 72.749 197.505 73.394C197.449 73.4643 197.379 73.521 197.298 73.5598C197.217 73.5986 197.129 73.6185 197.039 73.618H196.998C196.902 73.6128 196.808 73.5842 196.725 73.5347C196.643 73.4852 196.573 73.4163 196.523 73.334C195.892 72.307 195.6 71.354 195.574 70.237C195.526 68.577 195.828 66.563 196.367 63.144L197.779 54.161L191.212 60.17C190.032 61.251 190.032 61.251 191.197 62.589L191.804 63.286C191.906 63.2855 192.006 63.3106 192.096 63.359C192.185 63.4074 192.261 63.4775 192.317 63.563C192.372 63.6484 192.405 63.7464 192.412 63.848C192.42 63.9495 192.402 64.0513 192.36 64.144C192.318 64.2367 192.253 64.3173 192.172 64.3785C192.09 64.4396 191.995 64.4792 191.894 64.4938C191.793 64.5083 191.69 64.4973 191.595 64.4617C191.499 64.4261 191.415 64.367 191.348 64.29H189.753C189.666 64.2904 189.581 64.272 189.502 64.2361C189.423 64.2002 189.353 64.1476 189.297 64.082L184.653 58.721C184.582 58.6399 184.534 58.5409 184.515 58.4347C184.495 58.3285 184.505 58.2191 184.543 58.118C184.579 58.0172 184.642 57.9278 184.724 57.8591C184.806 57.7904 184.905 57.7448 185.011 57.727L186.45 57.498C186.551 57.4818 186.655 57.4914 186.751 57.526C186.847 57.5607 186.933 57.6191 187.001 57.696C187.634 58.43 187.931 58.513 188.102 58.513C188.442 58.513 188.933 58.147 189.613 57.558L197.961 50.308C198.479 49.859 198.338 49.169 197.548 48.258C197.481 48.1801 197.434 48.0863 197.413 47.9855C197.392 47.8847 197.397 47.7801 197.427 47.6817C197.458 47.5833 197.512 47.4942 197.587 47.4229C197.661 47.3516 197.752 47.3003 197.852 47.274L199.059 46.958C199.168 46.9283 199.283 46.9303 199.39 46.9638C199.498 46.9972 199.593 47.0608 199.666 47.147L202.704 50.649C202.761 50.7158 202.803 50.7941 202.828 50.8787C202.852 50.9633 202.857 51.0521 202.844 51.139L200.41 66.999L207.119 60.9C207.831 60.253 207.976 60.119 206.802 58.762C206.732 58.6823 206.685 58.5855 206.665 58.4815C206.645 58.3775 206.652 58.27 206.687 58.17C206.722 58.0692 206.783 57.9793 206.864 57.9095C206.944 57.8396 207.042 57.7922 207.147 57.772L208.287 57.554C208.391 57.5339 208.498 57.5416 208.598 57.5764C208.698 57.6112 208.787 57.6718 208.856 57.752L212.957 62.485C213.097 62.648 213.143 62.874 213.072 63.077C213.039 63.1786 212.979 63.2694 212.898 63.3396C212.817 63.4098 212.719 63.457 212.614 63.476L211.347 63.724ZM28.851 192.328C24.843 187.024 21.15 181.38 18.351 175.333C15.654 169.498 13.221 162.191 15.37 155.797C16.442 152.604 18.831 149.971 22.152 149.123C25.426 148.287 29.097 149.204 31.714 151.313C36.369 155.061 35.996 162.805 30.8 165.992C24.446 169.886 16.492 161.136 22.256 155.699C23.569 154.462 25.402 154.058 27.082 154.753C27.694 155.004 28.263 155.528 27.897 156.246C27.499 157.026 26.792 156.708 26.179 156.497C22.744 155.299 21.498 160.531 23.016 162.718C25.126 165.76 29.302 165.628 31.452 162.778C33.163 160.513 33.741 157.143 32.161 154.667C30.549 152.138 27.335 150.691 24.389 150.775C20.957 150.874 18.338 153.165 17.241 156.341C15.048 162.703 17.965 170.179 20.763 175.864C24.064 182.549 28.392 188.642 33.009 194.458C51.153 217.32 77.812 232.584 106.661 236.831C135.02 241.005 164.481 233.849 188.076 217.62C200.467 209.095 211.118 198.009 219.439 185.504C223.47 179.454 227.285 172.791 228.761 165.595C229.929 159.918 229.222 151.583 221.961 150.739C218.759 150.365 215.24 151.84 213.593 154.691C212.166 157.168 212.629 160.449 214.304 162.701C216.354 165.46 220.36 165.728 222.602 162.99C223.677 161.675 223.871 159.981 223.166 158.443C222.615 157.244 221.457 156.123 220.033 156.391C219.321 156.527 218.427 157.203 217.934 156.246C217.566 155.528 218.14 155.004 218.748 154.753C220.296 154.113 222 154.389 223.292 155.451C225.808 157.524 226.243 161.33 224.331 163.939C222.201 166.837 218.027 167.809 214.933 165.903C212.425 164.359 211.005 161.417 210.808 158.533C210.361 151.79 217.688 147.401 223.765 149.112C230.42 150.988 231.855 158.431 230.954 164.399C229.88 171.528 226.391 178.124 222.624 184.169C220.874 186.975 218.974 189.688 216.979 192.328C215.799 193.884 214.591 195.419 213.358 196.933C212.74 197.69 212.117 198.443 211.489 199.192C211.035 199.739 210.489 200.734 209.808 201.014C192.292 220.594 168.308 233.778 142.448 238.273C114.557 243.117 85.402 237.186 61.356 222.294C48.684 214.447 37.816 204.193 28.851 192.328ZM209.808 201.014C208.128 202.893 209.943 200.957 209.808 201.014ZM234.856 149.425C236.514 149.425 236.505 151.997 234.856 151.997C233.223 151.997 233.197 149.425 234.856 149.425ZM202.862 213.245C210.094 206.849 216.67 199.475 222.055 191.434C229.334 180.573 236.708 167.682 234.517 154.075L234.856 154.107C235.412 154.102 235.959 153.96 236.448 153.695C237.634 160.437 236.533 167.34 234.211 173.723C231.263 181.836 226.495 189.092 221.376 195.983C215.438 203.96 208.473 211.12 200.663 217.276C190.285 225.441 178.65 232.324 166.149 236.693C157.672 239.653 149.129 241.645 140.248 242.989C143.211 242.451 146.18 241.953 149.101 241.221C169.033 236.518 187.523 226.809 202.862 213.245Z" fill="#522929"/>
<path d="M28.8599 170.122L29.9787 171.1L38.6742 165.108L38.1483 163.722L38.4447 163.518L42.2823 169.034L41.9859 169.238L40.8671 168.261L37.0134 170.916L37.4931 171.606C37.7581 171.987 38.1051 172.233 38.5341 172.346C38.9763 172.449 39.423 172.433 39.8741 172.297L41.9954 171.564C43.2687 171.153 44.2069 171.38 44.8099 172.247C45.2211 172.838 45.3828 173.407 45.295 173.953C45.2073 174.499 44.8867 174.963 44.3334 175.345C43.8327 175.69 43.3481 175.819 42.8795 175.734C42.4201 175.662 42.0351 175.403 41.7244 174.956C41.5965 174.772 41.4818 174.58 41.3802 174.377L41.275 174.1L43.9429 172.262C43.5634 171.94 43.0513 171.905 42.4066 172.155L40.2853 172.888C39.7328 173.074 39.2131 173.112 38.7263 173C38.5478 172.968 38.3551 172.887 38.1481 172.757L38.5593 173.348C39.0984 174.123 39.3606 174.836 39.3459 175.488C39.3536 176.143 39.171 176.735 38.7983 177.264L36.4204 180.36L36.8092 181.549L36.5128 181.754L35.0737 179.685C34.5894 178.989 34.3546 178.315 34.3693 177.664C34.3931 177.026 34.5939 176.46 34.9717 175.966L37.4787 172.636L36.5193 171.257L32.1716 174.252L32.6975 175.639L32.4011 175.843L28.5634 170.327L28.8599 170.122Z" fill="#522929"/>
<path d="M36.307 188.919C35.8154 188.392 35.574 187.853 35.5828 187.3C35.5916 186.747 35.8426 186.242 36.3358 185.785C36.782 185.373 37.2377 185.169 37.7027 185.174C38.1787 185.192 38.6024 185.399 38.9738 185.797C39.0612 185.89 39.1427 185.989 39.2183 186.094C39.2822 186.209 39.3306 186.284 39.3633 186.319L39.5411 186.58L37.1631 188.78C37.5386 189.065 38.005 189.189 38.5624 189.153C39.1198 189.117 39.9334 188.898 41.0034 188.496L42.2118 188.032L46.4069 175.648L45.8519 174.527L46.1162 174.282L48.1642 176.474C48.7322 177.082 49.0509 177.681 49.1202 178.271C49.2122 178.862 49.1318 179.514 48.8789 180.227L46.8579 186.185L53.3519 183.609L52.6515 181.805L52.9157 181.56L55.9469 184.804L55.6826 185.049L53.8434 184.135L41.4949 189.022C40.1825 189.539 39.1182 189.783 38.3022 189.753C37.4745 189.735 36.8094 189.456 36.307 188.919Z" fill="#522929"/>
<path d="M50.2015 195.099L52.1552 195.732L56.8732 194.608L57.6936 187.105L56.9795 186.078L57.2048 185.797L59.7412 187.813C60.3424 188.291 60.7207 188.816 60.8762 189.389C61.0416 189.95 61.0832 190.627 61.0008 191.42L60.7423 193.698L64.3259 192.837L63.3674 191.155L63.5927 190.874L67.1624 193.712L66.9371 193.992L64.9835 193.359L60.6636 194.371L59.8209 202.285L60.535 203.313L60.3096 203.593L57.7733 201.577C57.172 201.1 56.7887 200.58 56.6232 200.02C56.4578 199.459 56.4212 198.776 56.5136 197.97L56.7983 195.315L52.8128 196.255L53.7713 197.937L53.546 198.217L49.9762 195.38L50.2015 195.099Z" fill="#522929"/>
<path d="M64.4768 206.295L64.6555 205.982L66.0872 206.379L71.3292 197.212L70.2549 196.19L70.4336 195.877L76.2808 199.189L76.1021 199.502L74.6704 199.105L72.2282 203.376L75.3606 205.15L77.8029 200.879L76.7286 199.857L76.9073 199.544L82.7545 202.856L82.5758 203.168L81.1442 202.771L75.9022 211.938L76.9765 212.961L76.7978 213.273L70.9505 209.961L71.1293 209.649L72.5609 210.046L75.0628 205.671L71.9303 203.896L69.4285 208.272L70.5028 209.294L70.3241 209.606L64.4768 206.295Z" fill="#522929"/>
<path d="M81.7016 215.37L81.8263 215.033L83.3034 215.19L86.9613 205.283L85.7336 204.451L85.8583 204.113L92.1695 206.421L92.0448 206.759L90.5677 206.602L87.8243 214.032L93.7168 209.16L94.174 207.921L92.9464 207.089L93.0711 206.751L99.3822 209.06L99.2575 209.397L97.7804 209.24L94.1225 219.147L95.3502 219.979L95.2255 220.317L88.9144 218.008L89.0391 217.671L90.5161 217.828L93.2596 210.398L87.367 215.27L86.9098 216.509L88.1375 217.341L88.0128 217.679L81.7016 215.37Z" fill="#522929"/>
<path d="M107.301 223.772L107.331 223.414L108.796 223.173L109.671 212.65L108.266 212.173L108.296 211.814L114.993 212.366L114.963 212.724L113.498 212.965L113.09 217.868L116.678 218.164L117.086 213.261L115.681 212.784L115.71 212.425L122.408 212.977L122.378 213.335L120.913 213.576L120.037 224.1L121.443 224.577L121.413 224.935L114.716 224.384L114.745 224.025L116.21 223.784L116.628 218.762L113.04 218.466L112.623 223.489L114.028 223.966L113.998 224.324L107.301 223.772Z" fill="#522929"/>
<path d="M131.462 224.744C130.043 224.861 128.925 224.648 128.109 224.106C127.293 223.563 126.846 222.821 126.768 221.88C126.716 221.258 126.801 220.633 127.021 220.005C127.109 219.709 127.231 219.434 127.386 219.18C128.027 218.967 128.725 218.765 129.479 218.574C131.178 218.145 132.686 217.845 134.004 217.672L133.944 216.954C133.797 215.184 133.48 213.982 132.994 213.348C132.508 212.714 131.818 212.434 130.925 212.507C130.59 212.535 130.307 212.598 130.074 212.698L129.749 212.845L130.048 216.432L129.743 216.53C129.49 216.583 129.276 216.616 129.101 216.631C128.559 216.676 128.107 216.552 127.746 216.261C127.399 215.952 127.203 215.527 127.158 214.985C127.097 214.251 127.412 213.599 128.103 213.029C128.81 212.457 129.897 212.11 131.364 211.989C132.608 211.887 133.695 212.022 134.625 212.395C135.569 212.751 136.306 213.3 136.833 214.043C137.375 214.769 137.688 215.634 137.771 216.639L138.309 223.097L139.774 223.337L139.803 223.696L137.651 223.873C136.694 223.952 135.928 223.718 135.353 223.172C135.11 222.951 134.909 222.662 134.751 222.306C134.561 222.723 134.328 223.104 134.051 223.447C133.393 224.224 132.53 224.656 131.462 224.744ZM132.349 223.828C132.939 223.78 133.446 223.417 133.872 222.74C134.027 222.486 134.184 222.152 134.342 221.738L134.054 218.27C133.32 218.33 132.622 218.428 131.959 218.563C131.47 218.667 131.138 218.735 130.964 218.765C130.899 218.947 130.839 219.193 130.785 219.502C130.676 220.121 130.646 220.726 130.695 221.316C130.769 222.209 130.96 222.859 131.267 223.267C131.573 223.676 131.934 223.863 132.349 223.828Z" fill="#522929"/>
<path d="M156.988 221.231C156.009 221.58 155.1 221.725 154.263 221.667C153.435 221.587 152.739 221.352 152.172 220.959C151.601 220.551 151.204 220.038 150.982 219.421L151.547 219.22C151.726 219.716 152.055 220.134 152.534 220.473C153.012 220.812 153.582 221.026 154.243 221.113C154.913 221.18 155.61 221.085 156.333 220.828C158.067 220.211 158.609 218.999 157.959 217.192C157.646 216.319 157.209 215.718 156.649 215.391C156.09 215.064 155.486 215.015 154.837 215.246L153.368 215.769L153.165 215.205L154.182 214.842C154.831 214.612 155.272 214.208 155.507 213.632C155.742 213.056 155.719 212.376 155.438 211.593C155.156 210.81 154.741 210.27 154.192 209.973C153.643 209.676 153.045 209.643 152.397 209.874C152.02 210.008 151.709 210.161 151.465 210.333L151.121 210.582L152.339 213.97L152.069 214.143C151.839 214.259 151.641 214.346 151.475 214.405C150.962 214.588 150.494 214.584 150.069 214.396C149.654 214.187 149.354 213.827 149.17 213.315C148.922 212.622 149.072 211.906 149.623 211.167C150.188 210.422 151.209 209.787 152.687 209.261C153.938 208.816 155.019 208.584 155.93 208.565C156.842 208.546 157.559 208.698 158.084 209.021C158.617 209.324 158.979 209.739 159.168 210.266C159.395 210.898 159.378 211.465 159.116 211.965C158.869 212.461 158.47 212.934 157.918 213.386C157.375 213.816 156.723 214.176 155.959 214.465L156 214.578C156.804 214.308 157.616 214.155 158.436 214.118C159.19 214.087 159.861 214.205 160.45 214.471C161.033 214.722 161.447 215.186 161.69 215.864C162.047 216.858 161.874 217.819 161.171 218.749C160.463 219.664 159.069 220.491 156.988 221.231Z" fill="#522929"/>
<path d="M172.893 214.257C171.642 214.937 170.533 215.194 169.566 215.028C168.599 214.862 167.888 214.365 167.434 213.537C167.133 212.99 166.956 212.385 166.903 211.723C166.863 211.417 166.862 211.116 166.901 210.822C167.401 210.368 167.957 209.902 168.57 209.423C169.949 208.345 171.207 207.461 172.343 206.77L171.997 206.139C171.142 204.582 170.363 203.613 169.66 203.23C168.958 202.847 168.212 202.87 167.425 203.298C167.13 203.458 166.896 203.631 166.724 203.816L166.487 204.081L168.219 207.237L167.979 207.449C167.77 207.6 167.588 207.717 167.433 207.801C166.955 208.061 166.492 208.131 166.043 208.011C165.6 207.869 165.247 207.56 164.986 207.083C164.631 206.438 164.655 205.715 165.055 204.914C165.469 204.106 166.323 203.351 167.616 202.648C168.712 202.052 169.762 201.736 170.765 201.701C171.774 201.644 172.671 201.848 173.456 202.314C174.247 202.758 174.885 203.421 175.37 204.305L178.488 209.986L179.927 209.613L180.1 209.929L178.202 210.961C177.359 211.419 176.563 211.515 175.814 211.248C175.502 211.145 175.201 210.963 174.911 210.701C174.907 211.159 174.848 211.6 174.735 212.026C174.449 213.001 173.835 213.745 172.893 214.257ZM173.333 213.062C173.853 212.779 174.17 212.243 174.283 211.452C174.322 211.158 174.33 210.789 174.306 210.347L172.632 207.296C171.985 207.648 171.386 208.019 170.834 208.41C170.429 208.703 170.153 208.899 170.006 208.997C170.021 209.19 170.066 209.438 170.142 209.743C170.294 210.352 170.512 210.917 170.797 211.435C171.228 212.221 171.667 212.738 172.114 212.987C172.561 213.236 172.967 213.261 173.333 213.062Z" fill="#522929"/>
<path d="M185.118 206.019L186.045 204.862L179.617 196.484L178.251 197.069L178.032 196.784L183.382 192.718L183.601 193.003L182.674 194.16L185.523 197.873L186.192 197.365C186.561 197.084 186.792 196.728 186.884 196.296C186.966 195.852 186.929 195.408 186.771 194.965L185.933 192.889C185.46 191.641 185.643 190.697 186.484 190.059C187.057 189.623 187.62 189.436 188.172 189.499C188.725 189.562 189.205 189.859 189.614 190.393C189.984 190.875 190.138 191.351 190.075 191.821C190.025 192.281 189.783 192.676 189.35 193.005C189.172 193.141 188.984 193.263 188.786 193.374L188.513 193.491L186.54 190.92C186.236 191.312 186.225 191.823 186.507 192.453L187.344 194.53C187.557 195.071 187.62 195.586 187.531 196.075C187.507 196.254 187.435 196.45 187.315 196.661L187.889 196.226C188.64 195.655 189.343 195.362 189.997 195.347C190.654 195.309 191.257 195.464 191.806 195.811L195.026 198.036L196.2 197.596L196.419 197.881L194.413 199.406C193.738 199.919 193.073 200.183 192.419 200.198C191.778 200.203 191.2 200.029 190.687 199.676L187.226 197.333L185.888 198.349L189.102 202.538L190.468 201.952L190.687 202.238L185.337 206.304L185.118 206.019Z" fill="#522929"/>
<path d="M201.636 192.899C200.646 193.923 199.664 194.5 198.691 194.631C197.718 194.763 196.891 194.502 196.21 193.849C195.759 193.417 195.409 192.893 195.159 192.277C195.029 191.997 194.938 191.711 194.887 191.418C195.228 190.836 195.619 190.225 196.061 189.584C197.054 188.143 197.99 186.923 198.867 185.924L198.347 185.426C197.064 184.197 196.031 183.506 195.245 183.351C194.459 183.197 193.755 183.442 193.132 184.086C192.899 184.327 192.727 184.562 192.618 184.79L192.471 185.114L195.07 187.605L194.905 187.879C194.751 188.085 194.612 188.251 194.49 188.378C194.111 188.769 193.69 188.974 193.225 188.995C192.76 188.992 192.331 188.803 191.938 188.426C191.407 187.917 191.212 187.221 191.354 186.338C191.507 185.443 192.096 184.467 193.119 183.409C193.987 182.512 194.894 181.896 195.841 181.562C196.787 181.206 197.704 181.132 198.593 181.341C199.481 181.527 200.289 181.969 201.017 182.666L205.696 187.15L206.957 186.364L207.217 186.613L205.715 188.165C205.047 188.855 204.316 189.185 203.522 189.155C203.193 189.15 202.851 189.066 202.496 188.903C202.629 189.341 202.706 189.78 202.725 190.22C202.744 191.236 202.381 192.129 201.636 192.899ZM201.697 191.628C202.109 191.202 202.25 190.596 202.122 189.808C202.071 189.515 201.968 189.162 201.813 188.747L199.3 186.339C198.788 186.868 198.328 187.402 197.918 187.94C197.619 188.341 197.415 188.61 197.304 188.748C197.375 188.927 197.493 189.151 197.657 189.419C197.985 189.954 198.362 190.427 198.79 190.836C199.437 191.456 200.011 191.818 200.512 191.921C201.013 192.025 201.408 191.927 201.697 191.628Z" fill="#522929"/>
<path d="M214.181 177.889C213.584 178.74 212.926 179.384 212.209 179.821C211.488 180.235 210.783 180.446 210.093 180.454C209.39 180.453 208.77 180.265 208.231 179.89L208.576 179.399C209.009 179.7 209.52 179.851 210.107 179.85C210.694 179.849 211.283 179.693 211.872 179.382C212.458 179.049 212.972 178.568 213.413 177.939C214.47 176.434 214.211 175.133 212.635 174.036C211.873 173.506 211.169 173.27 210.522 173.327C209.876 173.385 209.355 173.695 208.96 174.258L208.064 175.535L207.571 175.192L208.192 174.308C208.587 173.745 208.714 173.161 208.572 172.555C208.43 171.95 208.018 171.41 207.334 170.935C206.651 170.46 206 170.26 205.38 170.335C204.76 170.411 204.252 170.73 203.857 171.293C203.627 171.621 203.462 171.925 203.362 172.206L203.226 172.609L206.182 174.664L206.062 174.961C205.941 175.189 205.83 175.375 205.729 175.519C205.416 175.964 205.032 176.233 204.576 176.325C204.117 176.395 203.663 176.275 203.217 175.964C202.613 175.544 202.321 174.873 202.342 173.952C202.372 173.018 202.838 171.91 203.739 170.626C204.502 169.54 205.25 168.725 205.983 168.182C206.716 167.64 207.39 167.348 208.004 167.308C208.615 167.245 209.15 167.374 209.61 167.694C210.162 168.078 210.476 168.549 210.552 169.109C210.637 169.656 210.585 170.272 210.396 170.959C210.203 171.624 209.879 172.295 209.423 172.972L209.522 173.04C210.022 172.356 210.596 171.761 211.244 171.256C211.841 170.795 212.457 170.502 213.092 170.378C213.713 170.245 214.319 170.384 214.91 170.795C215.777 171.398 216.193 172.282 216.158 173.446C216.109 174.601 215.45 176.082 214.181 177.889Z" fill="#522929"/>
</g>
<defs>
<clipPath id="clip0">
<rect width="246" height="243" fill="white"/>
</clipPath>
</defs>
</svg>
