<svg width="144" height="149" viewBox="0 0 144 149" fill="none" xmlns="http://www.w3.org/2000/svg">
<path fill-rule="evenodd" clip-rule="evenodd" d="M72.27 148.779C32.744 148.779 0.584 116.582 0.584 77.008C0.584 60.933 5.887 46.071 14.841 34.088C15.071 33.785 15.317 33.495 15.548 33.188C25.476 20.342 39.645 10.952 55.94 7.13599C55.2302 7.64793 54.5538 8.20473 53.915 8.80299C53.2995 9.38654 52.731 10.0178 52.215 10.691C39.898 14.436 29.028 21.527 20.657 30.907C18.7481 33.053 16.9712 35.3128 15.336 37.674C15.165 37.928 14.979 38.175 14.808 38.437C13.6759 40.1185 12.6208 41.8506 11.646 43.628C11.318 44.228 11.007 44.837 10.692 45.441C9.40096 47.9528 8.26093 50.5394 7.278 53.187C6.69478 54.8059 6.16912 56.4449 5.702 58.101C5.46448 58.9284 5.24509 59.761 5.044 60.598C4.59964 62.4028 4.23066 64.2254 3.938 66.061C3.867 66.463 3.816 66.87 3.759 67.277C3.50306 69.0927 3.31825 70.9178 3.205 72.748C3.176 73.263 3.153 73.778 3.134 74.293C3.09512 75.1658 3.07278 76.0393 3.067 76.913V77.008C3.067 78.079 3.095 79.14 3.143 80.2C3.215 81.751 3.342 83.286 3.512 84.809C3.611 85.681 3.719 86.552 3.846 87.419C3.966 88.217 4.12 89.01 4.265 89.805C4.415 90.614 4.581 91.413 4.763 92.214C5.12672 93.8455 5.54832 95.4635 6.027 97.065C6.156 97.49 6.294 97.91 6.43 98.334C6.90465 99.7754 7.42121 101.203 7.979 102.614C18.174 128.178 43.142 146.296 72.27 146.296C109.365 146.296 139.725 116.932 141.403 80.2L141.426 80.108L141.409 79.862C141.452 78.9112 141.476 77.9597 141.481 77.008C141.481 49.634 125.549 25.93 102.485 14.68C100.512 13.7186 98.4937 12.8516 96.438 12.082C96.587 11.623 96.684 11.177 96.712 10.733C96.7402 10.3261 96.7241 9.91739 96.664 9.51399C96.021 5.37099 90.69 1.93999 85.749 0.736989L85.764 0.644989C85.764 0.644989 97.862 1.49599 101.646 11.558C126.563 22.815 143.959 47.906 143.959 77.008C143.959 116.582 111.802 148.779 72.27 148.779ZM85.922 35.931C85.36 35.383 84.538 34.945 83.386 35.081C83.386 35.081 85.651 36.891 84.407 39.23C83.361 40.486 82.059 41.057 81.101 41.334C78.816 42 76.247 41.811 73.803 40.856C73.803 40.856 75.506 42.588 77.941 42.936C77.941 42.936 74.057 42.823 72.753 46.048C72.753 46.048 72.518 46.92 73.075 46.484C73.743 45.963 74.474 44.76 75.499 44.935C76.671 45.134 76.526 46.691 75.98 47.372C75.317 48.211 74.343 48.411 73.439 48.91C72.753 49.278 72.907 49.867 72.225 50.302C71.542 50.74 70.178 51.214 69.314 48.178C68.445 45.134 66.492 40.578 65.198 39.129C63.307 37.013 63.147 38.783 62.422 37.118C63.0534 36.3776 63.6424 35.602 64.186 34.795C64.1667 35.0444 64.2266 35.2935 64.357 35.507H64.352L64.359 35.508C64.474 35.702 64.652 35.878 64.87 36.059C65.391 36.612 66.177 37.468 66.623 38.045C67.324 38.966 67.879 40.929 67.879 40.929C67.879 40.929 68.36 39.174 67.716 37.504C67.285 36.386 67.213 36.026 67.42 35.74C67.584 35.667 67.747 35.59 67.89 35.519C68.756 35.087 69.192 35.336 69.314 36.269C69.438 37.195 69.809 37.268 69.809 37.268C70.429 36.787 70.673 36.827 71.475 37.195C72.27 37.569 73.527 36.399 73.527 36.399C72.907 36.655 71.73 36.36 71.475 35.648C71.113 34.649 72.843 34.095 73.803 33.785C74.425 33.578 75.791 33.114 74.517 32.467C73.345 31.861 68.821 33.229 68.821 33.229C69.95 31.412 72.931 30.042 74.928 29.235C75.8092 28.9783 76.6811 28.6904 77.542 28.372C77.542 28.372 75.824 28.293 74.722 28.601C75.729 27.508 82.698 25.89 83.504 30.679C83.504 30.683 84.091 27.873 82.757 25.468C82.757 25.468 85.455 29.955 85.567 32.118C85.639 33.495 86.136 34.945 85.922 35.931ZM99.635 49.115C100.162 50.718 100.821 54.096 101.172 56.803C101.181 56.851 101.186 56.888 101.192 56.929C101.232 57.251 101.271 57.571 101.305 57.862C99.389 51.346 95.97 48.687 95.97 48.687C97.149 48.912 98.684 49.779 98.684 49.779C98.182 48.036 96.7 44.339 94.452 41.777C95.153 44.034 95.04 46.024 94.056 48.65C94.857 45.04 92.285 37.712 90.898 34.155C90.856 34.046 90.822 33.951 90.781 33.853C90.5525 33.2699 90.3148 32.6905 90.068 32.115C90.333 32.531 90.619 32.993 90.916 33.466C91.165 33.868 91.421 34.274 91.681 34.685C92.704 36.328 93.74 37.966 94.365 38.86C95.795 40.91 97.156 43.094 98.177 45.373C98.7221 46.5965 99.2086 47.8452 99.635 49.115ZM65.059 102.45C65.287 102.579 65.504 102.708 65.705 102.847C65.705 102.847 66.289 105.008 62.809 107.945C61.924 108.699 60.779 109.498 59.282 110.328L55.712 108.218C55.712 108.218 57.064 107.301 58.365 105.411C58.457 105.28 58.547 105.147 58.639 105.002C58.911 104.572 59.178 104.092 59.423 103.573L60.618 104.235L60.731 104.3L62.178 105.113L62.176 105.081C62.279 105.134 62.371 105.196 62.507 105.224H62.509C63.917 105.479 64.203 103.659 64.203 103.659L63.474 103.222L63.389 103.171L62.457 102.607C62.615 102.265 62.837 101.935 63.175 101.66C63.244 101.604 63.332 101.547 63.417 101.491C63.663 101.645 63.896 101.782 64.11 101.906C64.454 102.103 64.776 102.284 65.059 102.45ZM58.577 97.722C58.738 97.701 58.886 97.686 59.01 97.683C61.326 98.559 62.903 99.317 63.618 99.677C63.901 99.826 64.066 99.909 64.066 99.909C63.806 99.977 63.573 100.088 63.359 100.208C63.009 100.398 62.726 100.636 62.473 100.904C62.3159 101.072 62.1708 101.251 62.039 101.439C61.6335 102.057 61.3397 102.741 61.171 103.46L60.063 102.876C60.063 102.876 60.081 102.151 60.588 101.529C60.63 101.483 60.671 101.428 60.717 101.379C60.5104 101.444 60.3161 101.543 60.142 101.672C59.635 102.035 59.37 102.548 59.37 102.548L58.844 102.265L56.612 101.076L55.394 100.424C55.053 97.332 57.934 97.037 57.934 97.037C57.446 97.135 56.516 97.882 56.656 98.857C57.015 98.112 57.905 97.822 58.577 97.722ZM77.418 93.618L76.849 94.532L74.729 97.969L70.901 104.177C70.8835 104.19 70.8639 104.201 70.843 104.208L73.271 98.685L74.419 96.078L75.176 94.35L73.879 96.414L72.081 99.256L67.81 106.019C66.601 106.723 65.46 107.367 64.495 107.891C65.1076 107.295 65.6377 106.619 66.071 105.882C66.718 104.733 67.321 103.167 66.893 101.848C66.912 101.903 66.95 101.943 66.969 102.007C66.969 102.007 66.934 101.875 66.847 101.657C66.6766 101.237 66.4403 100.846 66.147 100.5C65.8691 100.175 65.5517 99.8867 65.202 99.641L69.667 90.377L70.752 90.883L68.651 96.122L71.956 91.362L77.418 93.618ZM100.275 93.902C96.514 95.287 93.082 96.392 92.01 98.039C88.147 97.891 87.139 100.805 86.874 102.234H86.835C86.8 102.234 86.777 102.234 86.759 102.229C86.712 102.192 86.643 102.118 86.588 102.063C86.273 101.747 85.798 101.27 84.914 100.793C84.0259 100.304 83.0288 100.047 82.015 100.046C80.675 100.046 79.754 100.489 79.585 100.579L78.97 100.894L76.619 99.37L78.887 95.747C79.97 95.112 80.877 94.523 81.491 94.008C85.501 90.682 93.241 83.286 95.76 80.738C96.7734 81.8397 97.8397 82.8916 98.955 83.89C102.752 87.295 105.249 89.554 106.896 91.064C104.737 92.1173 102.527 93.0644 100.275 93.902ZM101.409 63.809C101.609 64.657 101.759 65.401 101.86 66.017C102.04 67.045 102.107 67.688 102.107 67.688C99.707 60.846 95.258 58.876 95.258 58.876C96.735 58.624 98.204 59.19 98.204 59.19C98.204 59.19 97.521 55.782 94.736 51.46C98.629 54.615 100.527 60.101 101.409 63.809ZM92.464 68.952C92.2144 67.991 92.029 67.0145 91.909 66.029C93.257 66.33 94.415 66.837 95.387 67.403C97.707 68.755 98.926 70.439 98.926 70.439C98.926 70.439 98.879 68.147 97.29 65.105C96.6564 63.904 95.8942 62.7754 95.017 61.739C95.017 61.739 97.078 62.495 98.818 65.306C99.28 66.053 99.718 66.935 100.086 67.997C100.472 69.1009 100.678 70.2597 100.697 71.429C100.715 72.173 100.653 72.849 100.557 73.45C100.475 73.9617 100.358 74.4672 100.207 74.963C100.153 75.13 100.101 75.283 100.057 75.413C99.969 75.6594 99.8675 75.9008 99.753 76.136C99.753 76.136 99.69 75.678 99.453 74.967C99.396 74.798 99.333 74.611 99.257 74.417C98.5287 72.5609 97.3483 70.9162 95.823 69.632C95.1154 69.0211 94.3436 68.489 93.521 68.045C93.521 68.045 93.706 69.057 94.217 70.618C94.524 71.544 94.954 72.672 95.528 73.885C95.714 74.29 95.919 74.706 96.138 75.127C96.311 75.449 96.495 75.781 96.689 76.112C96.788 76.286 96.887 76.458 96.997 76.631C96.9011 76.5614 96.803 76.4947 96.703 76.431C96.023 75.961 94.775 75.175 93.392 73.862C92.5013 73.0199 91.7065 72.0818 91.022 71.065C90.741 70.653 90.47 70.225 90.209 69.751C90.359 69.863 90.497 69.972 90.64 70.081C90.948 70.317 91.243 70.544 91.504 70.754C91.741 70.941 91.955 71.116 92.153 71.277C92.6505 71.6864 93.1347 72.1116 93.605 72.552C93.605 72.552 93.331 71.86 92.996 70.815C92.7997 70.1996 92.6223 69.5783 92.464 68.952ZM65.064 118.24C65.016 118.241 64.974 118.248 64.928 118.248C64.17 118.248 64.216 117.569 63.263 117.569C63.035 117.569 62.745 117.606 62.381 117.703C61.807 117.236 62.235 116.286 62.885 116.041C63.542 115.793 64.587 115.773 65.723 115.516C67.342 115.137 69.441 114.014 70.668 113.563C71.899 113.111 78.219 111.838 77.542 109.169C76.545 109.828 75.607 110.536 74.494 110.981C73.896 111.219 73.267 111.445 72.707 111.445C72.076 111.445 71.534 111.166 71.214 110.3C71.014 110.931 71.102 111.439 71.256 111.916C70.228 112.487 66.563 113.824 65.866 113.945C65.8095 113.955 65.7523 113.96 65.695 113.959C65.184 113.959 65.041 113.493 64.387 113.493C64.064 113.493 63.611 113.608 62.933 113.945C62.111 113.119 62.94 112.071 64.253 111.749C64.88 111.594 65.522 111.368 66.006 111.223C67.4 110.811 69.328 109.42 70.717 108.824C72.113 108.229 74.492 107.323 75.635 106.509C76.778 105.688 78.175 105.113 79.321 104.499C80.468 103.88 81.373 102.943 80.265 101.889C80.265 101.889 80.316 101.866 80.405 101.83C80.9159 101.621 81.4631 101.516 82.015 101.521C82.645 101.521 83.407 101.657 84.213 102.093C85.802 102.954 85.611 103.711 86.835 103.711C86.853 103.711 86.883 103.711 86.895 103.707C86.956 103.707 87.016 103.707 87.081 103.701C87.134 103.701 87.185 103.697 87.244 103.697C87.765 103.697 88.445 103.834 89.074 103.834C89.133 103.834 89.195 103.834 89.255 103.831C93.499 107.125 93.158 113.075 92.481 114.996C92.315 115.453 91.859 116.707 91.37 116.707C91.092 116.707 90.815 116.315 90.571 115.169C90.126 116.005 90.629 116.766 89.718 117.852C89.122 118.553 87.929 119.391 85.459 120.481C83.734 121.237 80.509 121.878 78.873 121.878C78.397 121.878 77.469 122.16 76.701 122.16C76.036 122.16 75.496 121.951 75.473 121.18C75.264 121.447 75.209 122.142 75.352 122.544C74.861 122.62 73.311 123.042 71.896 123.042C70.869 123.042 69.899 122.816 69.448 122.069C69.4716 121.918 69.5378 121.777 69.639 121.662C69.805 121.463 70.069 121.362 70.367 121.302C70.62 121.255 70.889 121.233 71.173 121.233C71.473 121.233 71.774 121.248 72.05 121.248C72.186 121.248 72.318 121.244 72.435 121.233C73.463 121.15 74.041 120.9 74.813 120.656C75.594 120.413 79.203 120.267 78.954 118.205C78.139 118.778 77.192 118.994 76.241 119.213C75.52 119.374 74.803 119.633 74.177 119.633C74.071 119.633 73.969 119.614 73.864 119.594C73.37 119.516 72.931 119.234 72.592 118.529C72.445 119.312 72.536 119.714 72.71 119.937C72.092 120.047 71.336 120.101 70.887 120.162C70.272 120.249 68.773 121.03 67.195 121.049H67.176C66.455 121.049 66.932 120.541 64.99 120.409C64.748 120.219 64.96 119.559 65.486 119.398C66.259 119.163 67.817 119.436 71.951 117.787C73.393 117.209 78.708 116.48 78.275 113.931C77.2283 114.597 76.0918 115.109 74.9 115.453C74.313 115.623 73.576 115.854 72.928 115.854C72.198 115.854 71.581 115.571 71.382 114.593C71.028 115.22 71.279 115.827 71.343 116.286C70.274 116.857 66.071 118.148 65.064 118.24ZM47.009 118.35C47.442 117.934 47.652 117.364 47.569 116.788C47.497 116.278 47.228 115.876 46.912 115.574C47.2663 115.413 47.6088 115.227 47.937 115.018C48.545 114.626 48.997 114.133 49.285 113.583C49.41 113.523 49.532 113.449 49.642 113.352C50.635 112.475 51.846 109.752 52.234 108.049C52.263 107.937 52.28 107.832 52.302 107.729L52.641 107.933L58.951 111.718L72.578 105.113L59.568 112.467L46.779 118.804L46.429 118.668C46.645 118.603 46.845 118.502 47.009 118.35ZM46.769 125.577V121.049L59.542 114.853L48.481 122.198L53.311 120.974L49.384 123.48L60.448 120.608L52.045 126.037L61.975 123.134L46.769 130.758V128.156L49.043 126.545C49.043 126.545 46.769 127.619 46.769 125.577ZM39.101 112.978C39.854 113.578 40.451 114.808 41.008 115.481C41.029 115.506 41.045 115.543 41.068 115.567C41.345 115.887 42.031 116.206 42.824 116.388C43.225 116.48 43.648 116.54 44.072 116.54C44.546 116.54 45.007 116.47 45.411 116.3C45.411 116.3 46.452 116.839 45.996 117.273C45.268 117.372 44.731 117.59 44.36 117.854C43.718 118.303 43.567 118.875 43.786 119.155C42.925 118.992 41.858 118.9 40.67 118.538C39.6249 118.228 38.6392 117.744 37.754 117.108C37.434 116.884 37.984 116.244 38.143 115.699C38.17 115.616 38.102 115.553 38.034 115.553C38 115.553 37.966 115.562 37.945 115.588C37.677 115.863 37.357 116.112 36.908 116.112C36.637 116.112 36.319 116.018 35.947 115.787C34.879 115.132 33.487 113.765 33.326 113.229C33.326 113.229 32.88 114.701 34.135 115.963C35.409 117.245 37.903 119.086 39.488 119.714C39.723 119.808 39.939 119.878 40.124 119.915C40.907 120.059 41.946 120.445 42.81 120.445C43.794 120.445 44.796 121.469 43.635 121.676C43.275 121.738 42.1 121.795 42.185 122.693C41.9533 122.714 41.7207 122.725 41.488 122.724C40.543 122.724 39.668 122.539 39.039 122.273C38.542 122.063 38.0437 121.856 37.544 121.652C36.62 121.285 35.664 120.919 35.25 120.812C34.743 120.689 35.777 120.116 35.708 119.48C35.613 119.711 34.914 120.107 34.354 120.107C34.2325 120.108 34.1119 120.085 33.999 120.04C32.622 119.382 31.684 118.127 31.451 117.453C30.785 119.48 33.833 121.368 34.409 121.595C34.911 121.792 35.547 122.027 36.636 122.559C36.786 122.639 36.918 122.695 37.093 122.784C38.369 123.43 39.836 123.739 40.294 123.748C40.741 123.766 42.169 123.85 41.73 124.583C41.566 124.74 41.29 124.755 40.992 124.755H40.732C40.274 124.755 39.827 124.794 39.688 125.277C38.583 125.107 36.404 124.62 35.061 124.131C34.7659 124.031 34.4798 123.907 34.206 123.758C33.469 123.318 33.996 123.279 33.996 122.659C33.86 122.822 33.575 122.927 33.237 122.927C33.01 122.927 32.76 122.877 32.509 122.765C31.67 122.37 31.461 122.246 30.857 121.553C30.857 121.553 31.046 122.741 32.594 123.895C33.1198 124.289 33.6856 124.626 34.282 124.901C36.037 125.721 37.376 125.691 37.51 126.05C37.636 126.376 37.357 126.807 36.546 126.899C36.454 126.91 36.385 126.933 36.275 126.933C36.144 126.933 35.996 126.929 35.837 126.91C34.448 126.742 32.241 125.524 31.357 124.645C29.875 123.174 29.738 122.622 29.281 121.512C29.062 120.394 29.551 119.686 29.245 118.276C29.078 117.495 29.291 116.282 29.599 115.538C29.843 114.947 29.56 114.294 29.922 113.346C30.334 112.281 30.997 112.232 31.278 111.594C31.727 110.569 31.684 108.838 34.789 107.553C35.485 107.266 36.341 106.818 37.256 106.323C37.254 107.909 37.498 109.129 37.829 110.031C37.45 110.332 37.127 110.679 36.915 111.072C38.677 111.647 38.322 112.363 39.101 112.978ZM41.538 101.117C41.699 101.117 41.856 101.124 42.015 101.132C43.142 101.19 44.003 101.446 44.132 101.766C44.137 101.795 44.16 101.821 44.16 101.852C44.16 102.21 43.208 102.505 41.965 102.567C41.829 102.57 41.683 102.575 41.538 102.575C41.419 102.575 41.319 102.57 41.209 102.567C40.435 102.538 39.767 102.425 39.354 102.254C39.506 102.515 39.778 102.839 40.212 103.049C40.363 103.127 40.529 103.185 40.72 103.226C40.343 103.293 40.071 103.594 39.878 104.052C39.7483 104.367 39.6577 104.698 39.608 105.035C39.415 106.138 39.419 107.596 39.493 109.032L39.548 109.828C39.566 110.102 39.585 110.369 39.606 110.636C39.608 110.673 39.612 110.706 39.613 110.743C39.592 110.715 39.58 110.688 39.56 110.662C39.418 110.453 39.2855 110.239 39.163 110.018C39.0483 109.801 38.9448 109.578 38.853 109.35C38.387 108.168 38.253 106.908 38.276 105.763C38.283 105.465 38.3 105.172 38.323 104.897C38.353 104.577 38.394 104.272 38.436 103.99C38.627 102.752 38.912 101.889 38.912 101.889H38.929C38.928 101.875 38.912 101.857 38.912 101.852C38.912 101.446 40.089 101.117 41.538 101.117ZM44.835 103.226H44.973C45.57 103.226 46.316 103.271 46.965 103.405C47.309 103.488 47.633 103.587 47.871 103.735C48 103.819 48.135 103.915 48.272 104.007C48.833 104.384 49.391 104.809 49.856 105.28C50.4 105.838 50.812 106.457 50.9 107.146C50.914 107.2 50.898 107.301 50.879 107.421C50.7863 107.87 50.6599 108.312 50.501 108.742C50.045 110.031 49.29 111.686 48.661 112.245C48.596 111.901 48.651 111.627 48.067 111.169C48.025 111.141 47.99 111.113 47.944 111.081C47.97 111.127 47.984 111.177 48.006 111.226C48.345 112.057 48.253 113.056 47.14 113.776C46.6506 114.092 46.1208 114.34 45.565 114.515C45.565 114.515 45.699 114.082 45.654 113.572C45.609 113.136 45.433 112.635 44.899 112.302C44.887 112.296 44.88 112.286 44.869 112.275C44.869 112.275 43.379 112.711 42.925 113.119C42.925 113.119 43.102 113.343 43.25 113.653C43.485 114.152 43.658 114.871 42.925 115.266C42.925 115.266 42.854 115.282 42.745 115.282C42.506 115.282 42.094 115.209 41.829 114.814C41.639 114.537 41.52 114.102 41.603 113.388C41.603 113.388 41.722 111.952 43.033 111.506C44.344 111.054 46.065 110.439 47.17 107.762C46.8813 107.96 46.5658 108.117 46.233 108.226C45.507 107.95 44.185 106.414 44.835 103.226ZM93.98 79.043C93.367 79.648 85.455 86.624 85.455 80.119C83.808 82.276 82.043 87.236 82.043 89.739C81.546 89.081 81.094 86.322 81.218 83.489C81.218 83.489 77.977 88.4 79.03 93.096C79.03 93.096 75.02 88.86 68.934 89.04C67.879 91.038 65.686 95.46 63.97 98.959C63.82 98.889 63.657 98.809 63.486 98.728C62.9158 98.4232 62.3308 98.1472 61.733 97.901C60.494 97.332 59.075 96.723 57.782 96.329C56.223 96.329 53.719 97.79 54.521 100.831L56.175 101.752C56.596 103.594 53.429 104.799 52.48 105.247C51.778 103.405 49.842 101.117 46.5 100.661C46.353 100.73 47.452 99.644 52.512 101.19C51.485 99.715 48.368 98.826 46.459 99.312C47.9169 97.5702 49.4724 95.9126 51.118 94.347C52.542 93.336 56.306 91.083 61.583 91.181C61.583 91.181 58.764 90.472 55.751 90.499C63.424 84.976 70.717 84.013 76.837 86.216C76.837 86.216 73.764 82.276 67.043 82.549C68.646 79.137 71.118 74.82 73.576 70.73C73.439 75.194 74.458 78.389 74.458 78.389C74.539 73.386 75.508 69.667 76.227 67.561C76.671 72.515 77.501 74.995 77.501 74.995C77.422 66.788 79.454 61.977 80.345 60.266C81 63.249 83.234 68.327 87.127 71.506C87.127 71.506 86.448 69.214 86.392 66.275C88.724 71.444 92.414 77.387 93.98 79.043ZM96.516 31.537C96.104 32.739 95.339 33.158 93.678 32.54C93.9456 33.5502 94.3144 34.5309 94.779 35.467C94.971 35.847 95.171 36.196 95.371 36.532C94.95 36.032 94.535 35.561 94.132 35.087C93.7889 34.6968 93.4525 34.3007 93.123 33.899C91.137 31.5 90.978 29.474 90.932 27.614C90.932 27.614 90.4 28.999 90.476 30.761C90.476 30.761 88.413 27.173 89.32 23.661C90.235 20.146 92.333 19.466 93.694 19.881C95.056 20.296 95.834 21.537 95.623 22.902C95.418 24.264 95.544 26.124 95.88 27.164C96.201 28.198 96.933 30.338 96.516 31.537ZM94.591 25.054C94.439 23.698 94.602 23.295 94.576 22.036C94.54 20.296 92.8 21.21 92.8 21.21C93.491 21.126 93.828 21.352 93.976 22.082C94.079 22.57 93.853 24.312 93.837 25.184C93.816 26.353 94.825 26.751 94.825 26.751C94.872 26.353 94.738 26.424 94.591 25.054ZM95.212 28.76C95.023 29.119 94.275 29.243 93.991 29.05C93.731 28.877 93.57 28.593 93.482 28.297C93.395 28.001 93.367 27.689 93.319 27.384C93.241 26.869 93.07 26.599 92.727 26.236L91.783 25.222C91.633 25.057 91.469 24.883 91.425 24.66C91.345 24.274 91.647 23.918 91.863 23.583C92.0765 23.2586 92.2253 22.8959 92.301 22.515C92.344 22.333 92.333 22.093 92.165 22.014C92.057 21.965 91.935 22.005 91.826 22.05C90.066 22.842 90.7 25.307 91.531 26.573C92.236 27.643 92.264 28.241 92.476 29.453C92.651 30.458 94.254 31.774 95.304 30.694C95.77 30.219 95.765 29.205 95.212 28.76ZM110.16 27.886C111.447 28.76 112.238 30.371 112.385 31.879C112.597 34.15 111.164 35.891 110.264 37.827C109.273 39.96 108.234 43.177 108.396 45.52C108.396 45.52 106.509 40.522 109.725 33.959C109.725 33.959 103.613 37.347 104.367 52.163L104.093 51.547C103.106 46.791 101.639 39.037 103.726 32.589C104.76 29.401 105.426 26.06 101.874 25.501C101.528 25.4502 101.18 25.4208 100.831 25.413C100.831 25.413 101.268 25.318 101.881 25.272C102.775 25.202 104.06 25.234 104.986 25.845C106.207 26.649 107.28 28.01 106.954 30.118C106.795 31.123 106.804 32.654 108.048 31.916C109.333 31.15 108.609 28.593 108.243 27.62C107.797 26.416 110.047 27.803 110.16 27.886ZM106.191 105.308C106.191 105.308 103.012 108.857 100.99 114.82C99.591 113.267 97.562 112.613 94.418 116.812C96.631 108.876 91.637 102.118 88.997 101.66C88.758 101 89.794 99.397 91.213 99.747C93.222 100.243 95.945 102.954 97.435 107.342C97.788 104.264 96.302 99.515 93.536 98.408C94.452 98.197 98.73 99.712 100.017 100.693C99.948 99.677 98.085 98.19 96.316 97.423C101.248 95.188 105.55 93.853 109.095 93.111C111.726 92.562 113.937 92.339 115.67 92.333C117.213 92.33 118.393 92.488 119.136 92.732C119.136 92.732 117.686 91.464 115.762 90.557C115.491 90.4304 115.216 90.3133 114.937 90.206C115.179 90.105 115.477 90.029 115.797 89.958C119.001 89.303 125.635 90.405 128.079 91.886C128.079 91.886 127.143 86.629 116.048 85.333C116.032 85.333 116.013 85.33 115.995 85.33C115.995 85.33 116.022 85.311 116.05 85.288C116.61 84.908 122.642 80.991 130.175 83.979C130.175 83.979 128.809 79.936 119.19 78.817C119.19 78.817 120.19 70.636 125.439 67.815C125.439 67.815 120.056 68.458 117.747 72.941C117.747 72.941 115.838 67.929 122.758 61.719C122.758 61.719 120.585 61.711 116.6 65.427C116.6 65.427 116.506 65.181 116.405 64.732C116.2 63.792 115.955 61.947 116.405 59.523C116.973 56.471 118.637 52.503 122.873 48.238C122.873 48.238 119.438 49.835 117.724 52.264C117.641 52.3726 117.564 52.485 117.492 52.601C116.997 48.91 117.34 43.598 120.671 41.103C126.637 36.655 130.654 44.034 132.174 48.946C133.098 51.95 134.054 55.032 134.773 58.095C135.153 59.702 135.816 68.234 133.508 68.842C133.524 68.837 136.457 68.061 137.099 64.739C137.099 64.739 137.297 74.26 133.326 80.034C133.326 80.034 135.438 79.552 137.277 78.252C137.544 83.774 135.943 94.365 133.508 98.279C133.508 98.279 134.602 93.197 133.58 89.349C133.58 89.349 133.108 96.909 129.187 103.368C128.71 104.161 128.184 104.925 127.613 105.654C127.613 105.654 129.085 101.749 128.991 97.159C128.991 97.159 124.603 108.474 116.6 109.482C116.6 109.482 119.881 104.207 119.325 100.508C119.325 100.508 110.897 113.411 106.191 105.308ZM54.404 26.065C54.3548 26.0694 54.3054 26.0714 54.256 26.071C51.952 29.852 50.04 34.123 49.388 38.405C49.234 39.437 49.117 40.494 49.423 41.51C49.672 42.291 50.494 42.686 51.194 42.466C52.404 42.072 52.026 40.952 52.966 40.345C53.608 39.924 54.862 40.07 55.597 40.047C57.598 39.994 59.153 40.085 60.837 38.737C61.056 39.088 61.268 39.407 61.466 39.698C62.081 40.595 63.408 39.589 64.124 40.79C65.161 42.512 66.276 43.798 67.391 48.664C67.982 51.266 68.545 52.253 69.908 52.752C71.27 53.25 72.894 52.226 73.476 52.559C74.587 54.151 75.752 54.151 75.99 53.667C77.402 51.306 79.099 49.667 80.965 49.041C81.582 48.826 82.331 49.15 82.297 50.12C80.951 48.197 74.373 55.064 78.54 55.592C78.705 55.613 78.855 55.648 78.989 55.682C77.496 57.88 75.241 61.311 73.811 64.021C72.053 67.354 67.006 75.665 64.725 82.076C63.269 82.814 52.885 87.73 46.15 96.34C44.993 97.819 43.563 99.284 42.602 100.407C40.516 99.985 38.622 100.504 37.952 101.314C37.674 102.389 37.4752 103.483 37.357 104.587C36.166 105.242 35.051 105.852 34.227 106.188C31.039 107.507 30.438 109.406 30.083 110.541C30.032 110.706 29.986 110.864 29.922 111.003C29.8736 111.028 29.8297 111.061 29.792 111.1C29.2308 111.551 28.8015 112.145 28.549 112.819C28.256 113.583 28.247 114.227 28.24 114.664C28.238 114.783 28.238 114.953 28.222 115.003C27.851 115.905 27.556 117.437 27.8 118.588C27.92 119.106 27.874 119.475 27.818 119.947C27.761 120.439 27.689 121.049 27.826 121.787C27.848 121.887 27.876 121.99 27.92 122.082L28.031 122.357C28.482 123.462 28.834 124.214 30.316 125.691C31.421 126.791 33.944 128.174 35.666 128.379C35.888 128.401 36.09 128.417 36.275 128.417C37.159 128.417 37.751 128.159 38.143 127.87L46.507 132.969L67.971 122.475L68.185 122.828C68.86 123.95 70.109 124.517 71.896 124.517C73.112 124.517 74.361 124.255 75.105 124.094C75.305 124.055 75.46 124.022 75.568 124.005L77.363 123.742L77.314 123.601C77.667 123.562 78.007 123.498 78.307 123.448C78.501 123.412 78.781 123.361 78.878 123.356C80.624 123.356 84.066 122.702 86.051 121.83C88.21 120.878 89.562 120.059 90.421 119.234C91.289 119.379 93.722 119.587 98.983 118.817C104.311 118.036 111.204 116.244 115.612 115.018L59.485 142.092C39.456 138.156 22.636 125.153 13.475 107.536C13.6786 107.474 13.8748 107.39 14.06 107.285L54.373 85.399L14.537 100.483L55.362 79.229L10.913 95.793L58.384 72.276L11.399 89.331L66.144 62.103L9.144 83.914L59.709 58.153L8.623 77.765L54.109 53.571L11.247 70.266L46.769 50.98L9.515 65.088L41.794 46.152L10.409 58.488L41.794 40.79L12.482 51.315L43.01 34.493L19.36 42.506L43.181 27.909L24.068 34.999L45.924 20.6L27.572 28.088C34.1345 22.0703 41.8408 17.4346 50.232 14.457C50.253 14.411 50.262 14.371 50.283 14.323C50.283 14.323 50.262 14.379 50.239 14.457C50.2455 14.4517 50.2536 14.4489 50.262 14.449C49.737 16.346 49.87 18.356 50.833 20.41C51.247 21 51.809 21.547 52.574 21.995C55.378 23.632 59.918 22.59 63.891 21.144C63.891 21.144 61.989 22.788 56.833 23.684C56.833 23.684 56.912 23.711 57.053 23.738C57.698 23.871 59.973 24.112 65.068 22.579C66.7278 22.0748 68.3655 21.501 69.977 20.859C69.977 20.859 69.303 21.411 67.996 22.157C65.615 23.514 61.068 25.527 54.404 26.065Z" fill="#522929"/>
</svg>
