<svg width="35" height="35" viewBox="0 0 35 35" fill="none" xmlns="http://www.w3.org/2000/svg">
<path d="M0 17.5C0 12.8587 1.84372 8.4075 5.12561 5.12561C8.4075 1.84372 12.8587 0 17.5 0C22.1413 0 26.5925 1.84372 29.8744 5.12561C33.1563 8.4075 35 12.8587 35 17.5C35 22.1413 33.1563 26.5925 29.8744 29.8744C26.5925 33.1563 22.1413 35 17.5 35C12.8587 35 8.4075 33.1563 5.12561 29.8744C1.84372 26.5925 0 22.1413 0 17.5V17.5Z" fill="#EEC85A"/>
<path d="M23.49 23.53L20.23 21.91C20.0264 21.807 19.8552 21.6498 19.7352 21.4557C19.6153 21.2616 19.5512 21.0382 19.55 20.8101V19.53C20.1378 18.8095 20.5855 17.9853 20.87 17.1C21.28 16.97 21.59 16.59 21.59 16.13V14.77C21.59 14.47 21.46 14.21 21.25 14.02V12.0601C21.25 12.0601 21.65 9 17.5 9C13.34 9 13.75 12.0601 13.75 12.0601V14.02C13.55 14.21 13.41 14.47 13.41 14.77V16.13C13.41 16.49 13.6 16.8 13.88 16.99C14.1059 17.9141 14.5251 18.7798 15.11 19.53V20.77C15.11 21.22 14.87 21.64 14.47 21.86L11.43 23.51C10.9984 23.7425 10.6376 24.0873 10.3859 24.5081C10.1341 24.9288 10.0008 25.4098 10 25.9V27H25V25.97C25 24.93 24.41 23.99 23.49 23.53V23.53Z" fill="white"/>
</svg>
