<svg width="8" height="15" viewBox="0 0 8 15" fill="none" xmlns="http://www.w3.org/2000/svg">
<path d="M1.17008 15C1.31948 15.0005 1.46709 14.9676 1.60206 14.9035C1.73704 14.8395 1.85596 14.7461 1.95008 14.63L6.78008 8.63003C6.92716 8.4511 7.00757 8.22666 7.00757 7.99503C7.00757 7.76341 6.92716 7.53896 6.78008 7.36003L1.78008 1.36003C1.61034 1.15581 1.36643 1.02739 1.102 1.00301C0.837578 0.978631 0.574297 1.06029 0.37008 1.23003C0.165864 1.39977 0.0374398 1.64368 0.0130601 1.90811C-0.0113196 2.17253 0.0703416 2.43581 0.24008 2.64003L4.71008 8.00003L0.390081 13.36C0.267798 13.5068 0.190121 13.6856 0.166241 13.8751C0.142362 14.0647 0.173278 14.2571 0.255334 14.4296C0.33739 14.6021 0.46715 14.7475 0.629261 14.8486C0.791371 14.9497 0.979047 15.0023 1.17008 15Z" fill="#F4F2F1"/>
</svg>
